<?xml version="1.0" encoding="utf-8"?>
<!-- Generator: Adobe Illustrator 21.0.2, SVG Export Plug-In . SVG Version: 6.00 Build 0)  -->
<svg version="1.1" id="Layer_1" xmlns="http://www.w3.org/2000/svg" xmlns:xlink="http://www.w3.org/1999/xlink" x="0px" y="0px"
	 viewBox="0 0 1140 622" style="enable-background:new 0 0 1140 622;" xml:space="preserve">
<style type="text/css">
	.st0{opacity:0.7;fill:#FFFFFF;}
</style>
<circle id="Oval-2" class="st0" cx="499" cy="2" r="1"/>
<circle id="Oval-2_2_" class="st0" cx="-11" cy="311" r="1"/>
<circle id="Oval-2_3_" class="st0" cx="39" cy="265" r="1"/>
<circle id="Oval-2_4_" class="st0" cx="151" cy="336" r="1"/>
<circle id="Oval-2_5_" class="st0" cx="202" cy="283" r="1"/>
<circle id="Oval-2_6_" class="st0" cx="151" cy="165" r="1"/>
<circle id="Oval-2_7_" class="st0" cx="204" cy="117" r="1"/>
<circle id="Oval-2_8_" class="st0" cx="168" cy="73" r="1"/>
<circle id="Oval-2_9_" class="st0" cx="258" cy="97" r="1"/>
<circle id="Oval-2_10_" class="st0" cx="30" cy="97" r="1"/>
<circle id="Oval-2_11_" class="st0" cx="62" cy="108" r="1"/>
<circle id="Oval-2_12_" class="st0" cx="59" cy="52" r="1"/>
<circle id="Oval-2_13_" class="st0" cx="106" cy="51" r="1"/>
<circle id="Oval-2_14_" class="st0" cx="83" cy="10" r="1"/>
<circle id="Oval-2_15_" class="st0" cx="152" cy="46" r="1"/>
<circle id="Oval-2_16_" class="st0" cx="209" cy="60" r="1"/>
<circle id="Oval-2_17_" class="st0" cx="258" cy="34" r="1"/>
<circle id="Oval-2_18_" class="st0" cx="598" cy="70" r="1"/>
<circle id="Oval-2_19_" class="st0" cx="627" cy="37" r="1"/>
<circle id="Oval-2_20_" class="st0" cx="668" cy="79" r="1"/>
<circle id="Oval-2_21_" class="st0" cx="728" cy="71" r="1"/>
<circle id="Oval-2_22_" class="st0" cx="700" cy="41" r="1"/>
<circle id="Oval-2_23_" class="st0" cx="922" cy="66" r="1"/>
<circle id="Oval-2_24_" class="st0" cx="1045" cy="64" r="1"/>
<circle id="Oval-2_25_" class="st0" cx="1059" cy="37" r="1"/>
<circle id="Oval-2_26_" class="st0" cx="1129" cy="7" r="1"/>
<circle id="Oval-2_27_" class="st0" cx="1109" cy="48" r="1"/>
<circle id="Oval-2_28_" class="st0" cx="920" cy="209" r="1"/>
<circle id="Oval-2_29_" class="st0" cx="811" cy="218" r="1"/>
<circle id="Oval-2_30_" class="st0" cx="1131" cy="90" r="1"/>
<circle id="Oval-2_31_" class="st0" cx="940" cy="89" r="1"/>
<circle id="Oval-2_32_" class="st0" cx="891" cy="160" r="1"/>
<circle id="Oval-2_33_" class="st0" cx="1105" cy="161" r="1"/>
<circle id="Oval-2_34_" class="st0" cx="1024" cy="130" r="1"/>
<circle id="Oval-2_35_" class="st0" cx="791" cy="284" r="1"/>
<circle id="Oval-2_36_" class="st0" cx="288" cy="256" r="1"/>
<circle id="Oval-2_37_" class="st0" cx="240" cy="221" r="1"/>
<circle id="Oval-2_38_" class="st0" cx="193" cy="256" r="1"/>
<circle id="Oval-2_39_" class="st0" cx="114" cy="271" r="1"/>
<circle id="Oval-2_40_" class="st0" cx="98" cy="326" r="1"/>
<circle id="Oval-2_42_" class="st0" cx="131" cy="406" r="1"/>
<circle id="Oval-2_43_" class="st0" cx="28" cy="376" r="1"/>
<circle id="Oval-2_44_" class="st0" cx="1" cy="221" r="1"/>
<circle id="Oval-2_46_" class="st0" cx="73" cy="185" r="1"/>
<circle id="Oval-2_47_" class="st0" cx="35" cy="141" r="1"/>
<circle id="Oval-2_53_" class="st0" cx="461" cy="76" r="1"/>
<circle id="Oval-2_54_" class="st0" cx="404" cy="90" r="1"/>
<circle id="Oval-2_55_" class="st0" cx="355" cy="64" r="1"/>
<circle id="Oval-2_60_" class="st0" cx="778" cy="151" r="1"/>
<circle id="Oval-2_61_" class="st0" cx="750" cy="121" r="1"/>
<circle id="Oval-2_64_" class="st0" cx="782" cy="26" r="1"/>
<circle id="Oval-2_65_" class="st0" cx="870" cy="39" r="1"/>
<circle id="Oval-2_68_" class="st0" cx="1151" cy="180" r="1"/>
<circle id="Oval-2_69_" class="st0" cx="1125" cy="251" r="1"/>
<circle id="Oval-2_70_" class="st0" cx="1044" cy="220" r="1"/>
<circle id="Oval-2_78_" class="st0" cx="400" cy="336" r="1"/>
<circle id="Oval-2_79_" class="st0" cx="350" cy="382" r="1"/>
<circle id="Oval-2_80_" class="st0" cx="238" cy="311" r="1"/>
<circle id="Oval-2_81_" class="st0" cx="187" cy="364" r="1"/>
<circle id="Oval-2_82_" class="st0" cx="149" cy="426" r="1"/>
<circle id="Oval-2_83_" class="st0" cx="129" cy="366" r="1"/>
<circle id="Oval-2_84_" class="st0" cx="196" cy="391" r="1"/>
<circle id="Oval-2_85_" class="st0" cx="275" cy="376" r="1"/>
<circle id="Oval-2_86_" class="st0" cx="291" cy="321" r="1"/>
<circle id="Oval-2_87_" class="st0" cx="388" cy="426" r="1"/>
<circle id="Oval-2_92_" class="st0" cx="297" cy="438" r="1"/>
<circle id="Oval-2_93_" class="st0" cx="246" cy="491" r="1"/>
<circle id="Oval-2_94_" class="st0" cx="255" cy="518" r="1"/>
<circle id="Oval-2_95_" class="st0" cx="334" cy="503" r="1"/>
<circle id="Oval-2_96_" class="st0" cx="350" cy="448" r="1"/>
<circle id="Oval-2_100_" class="st0" cx="-1" cy="506" r="1"/>
<circle id="Oval-2_101_" class="st0" cx="49" cy="552" r="1"/>
<circle id="Oval-2_102_" class="st0" cx="161" cy="481" r="1"/>
<circle id="Oval-2_103_" class="st0" cx="212" cy="534" r="1"/>
<circle id="Oval-2_104_" class="st0" cx="250" cy="596" r="1"/>
<circle id="Oval-2_105_" class="st0" cx="203" cy="561" r="1"/>
<circle id="Oval-2_106_" class="st0" cx="124" cy="546" r="1"/>
<circle id="Oval-2_107_" class="st0" cx="108" cy="491" r="1"/>
<circle id="Oval-2_108_" class="st0" cx="18" cy="449" r="1"/>
<circle id="Oval-2_109_" class="st0" cx="11" cy="596" r="1"/>
<circle id="Oval-2_113_" class="st0" cx="321" cy="196" r="1"/>
<circle id="Oval-2_114_" class="st0" cx="372" cy="143" r="1"/>
<circle id="Oval-2_115_" class="st0" cx="284" cy="131" r="1"/>
<circle id="Oval-2_116_" class="st0" cx="268" cy="186" r="1"/>
<circle id="Oval-2_121_" class="st0" cx="502" cy="525" r="1"/>
<circle id="Oval-2_122_" class="st0" cx="488" cy="498" r="1"/>
<circle id="Oval-2_123_" class="st0" cx="418" cy="468" r="1"/>
<circle id="Oval-2_124_" class="st0" cx="438" cy="509" r="1"/>
<circle id="Oval-2_125_" class="st0" cx="416" cy="551" r="1"/>
<circle id="Oval-2_126_" class="st0" cx="442" cy="622" r="1"/>
<circle id="Oval-2_130_" class="st0" cx="872" cy="360" r="1"/>
<circle id="Oval-2_131_" class="st0" cx="995" cy="362" r="1"/>
<circle id="Oval-2_132_" class="st0" cx="1009" cy="389" r="1"/>
<circle id="Oval-2_133_" class="st0" cx="1059" cy="378" r="1"/>
<circle id="Oval-2_134_" class="st0" cx="955" cy="412" r="1"/>
<circle id="Oval-2_135_" class="st0" cx="969" cy="439" r="1"/>
<circle id="Oval-2_136_" class="st0" cx="1019" cy="428" r="1"/>
<circle id="Oval-2_137_" class="st0" cx="925" cy="542" r="1"/>
<circle id="Oval-2_138_" class="st0" cx="939" cy="569" r="1"/>
<circle id="Oval-2_139_" class="st0" cx="989" cy="558" r="1"/>
<circle id="Oval-2_140_" class="st0" cx="870" cy="217" r="1"/>
<circle id="Oval-2_141_" class="st0" cx="1081" cy="336" r="1"/>
<circle id="Oval-2_142_" class="st0" cx="1131" cy="420" r="1"/>
<circle id="Oval-2_143_" class="st0" cx="1143" cy="358" r="1"/>
<circle id="Oval-2_144_" class="st0" cx="890" cy="337" r="1"/>
<circle id="Oval-2_145_" class="st0" cx="841" cy="266" r="1"/>
<circle id="Oval-2_146_" class="st0" cx="1055" cy="265" r="1"/>
<circle id="Oval-2_147_" class="st0" cx="974" cy="296" r="1"/>
<circle id="Oval-2_153_" class="st0" cx="815" cy="452" r="1"/>
<circle id="Oval-2_154_" class="st0" cx="829" cy="479" r="1"/>
<circle id="Oval-2_155_" class="st0" cx="635" cy="532" r="1"/>
<circle id="Oval-2_156_" class="st0" cx="649" cy="559" r="1"/>
<circle id="Oval-2_157_" class="st0" cx="879" cy="468" r="1"/>
<circle id="Oval-2_158_" class="st0" cx="901" cy="426" r="1"/>
<circle id="Oval-2_159_" class="st0" cx="849" cy="548" r="1"/>
<circle id="Oval-2_160_" class="st0" cx="709" cy="507" r="1"/>
<circle id="Oval-2_161_" class="st0" cx="871" cy="506" r="1"/>
<circle id="Oval-2_164_" class="st0" cx="1015" cy="492" r="1"/>
<circle id="Oval-2_165_" class="st0" cx="1029" cy="519" r="1"/>
<circle id="Oval-2_166_" class="st0" cx="1039" cy="478" r="1"/>
<circle id="Oval-2_167_" class="st0" cx="1061" cy="436" r="1"/>
<circle id="Oval-2_150_" class="st0" cx="412" cy="283" r="1"/>
<circle id="Oval-2_148_" class="st0" cx="414" cy="117" r="1"/>
<circle id="Oval-2_128_" class="st0" cx="468" cy="97" r="1"/>
<circle id="Oval-2_120_" class="st0" cx="498" cy="256" r="1"/>
<circle id="Oval-2_118_" class="st0" cx="450" cy="221" r="1"/>
<circle id="Oval-2_112_" class="st0" cx="403" cy="256" r="1"/>
<circle id="Oval-2_110_" class="st0" cx="614" cy="90" r="1"/>
<circle id="Oval-2_98_" class="st0" cx="610" cy="336" r="1"/>
<circle id="Oval-2_91_" class="st0" cx="560" cy="382" r="1"/>
<circle id="Oval-2_89_" class="st0" cx="448" cy="311" r="1"/>
<circle id="Oval-2_77_" class="st0" cx="397" cy="364" r="1"/>
<circle id="Oval-2_75_" class="st0" cx="406" cy="391" r="1"/>
<circle id="Oval-2_73_" class="st0" cx="485" cy="376" r="1"/>
<circle id="Oval-2_71_" class="st0" cx="501" cy="321" r="1"/>
<circle id="Oval-2_66_" class="st0" cx="598" cy="426" r="1"/>
<circle id="Oval-2_62_" class="st0" cx="507" cy="438" r="1"/>
<circle id="Oval-2_58_" class="st0" cx="560" cy="448" r="1"/>
<circle id="Oval-2_56_" class="st0" cx="531" cy="196" r="1"/>
<circle id="Oval-2_51_" class="st0" cx="582" cy="143" r="1"/>
<circle id="Oval-2_49_" class="st0" cx="494" cy="131" r="1"/>
<circle id="Oval-2_45_" class="st0" cx="478" cy="186" r="1"/>
<circle id="Oval-2_1_" class="st0" cx="628" cy="468" r="1"/>
<circle id="Oval-2_169_" class="st0" cx="720" cy="386" r="1"/>
<circle id="Oval-2_163_" class="st0" cx="670" cy="432" r="1"/>
<circle id="Oval-2_152_" class="st0" cx="611" cy="371" r="1"/>
<circle id="Oval-2_304_" class="st0" cx="768" cy="418" r="1"/>
<circle id="Oval-2_172_" class="st0" cx="810" cy="382" r="1"/>
</svg>
