<?xml version="1.0" encoding="utf-8"?>
<!-- Generator: Adobe Illustrator 21.0.2, SVG Export Plug-In . SVG Version: 6.00 Build 0)  -->
<svg version="1.1" id="Layer_1" xmlns="http://www.w3.org/2000/svg" xmlns:xlink="http://www.w3.org/1999/xlink" x="0px" y="0px"
	 viewBox="0 0 1140 622" style="enable-background:new 0 0 1140 622;" xml:space="preserve">
<style type="text/css">
	.st0{fill:#FFFFFF;}
	.st1{fill:#FFFFFF;fill-opacity:0.7;}
</style>
<circle id="path-1_1_" class="st0" cx="25.5" cy="331.5" r="1.5"/>
<circle id="path-3_1_" class="st0" cx="75.5" cy="411.5" r="1.5"/>
<circle id="path-5_1_" class="st0" cx="55.5" cy="237.5" r="1.5"/>
<circle id="path-7_1_" class="st0" cx="89.5" cy="157.5" r="1.5"/>
<circle id="path-9_1_" class="st0" cx="157.5" cy="119.5" r="1.5"/>
<circle id="path-11_1_" class="st0" cx="22.5" cy="37.5" r="1.5"/>
<circle id="path-13_1_" class="st0" cx="180.5" cy="21.5" r="1.5"/>
<circle id="path-15_1_" class="st0" cx="290.5" cy="9.5" r="1.5"/>
<circle id="path-17_1_" class="st0" cx="432.5" cy="51.5" r="1.5"/>
<circle id="path-19_1_" class="st0" cx="322.5" cy="39.5" r="1.5"/>
<circle id="path-21_1_" class="st0" cx="708.5" cy="207.5" r="1.5"/>
<circle id="path-23_1_" class="st0" cx="761.5" cy="58.5" r="1.5"/>
<circle id="path-25_1_" class="st0" cx="811.5" cy="138.5" r="1.5"/>
<circle id="path-27_1_" class="st0" cx="881.5" cy="88.5" r="1.5"/>
<circle id="path-29_1_" class="st0" cx="811.5" cy="38.5" r="1.5"/>
<circle id="path-31_1_" class="st0" cx="1095.5" cy="129.5" r="1.5"/>
<circle id="path-33_1_" class="st0" cx="1115.5" cy="219.5" r="1.5"/>
<circle id="path-35_1_" class="st0" cx="965.5" cy="249.5" r="1.5"/>
<circle id="path-37_1_" class="st0" cx="986.5" cy="129.5" r="1.5"/>
<circle id="path-39_1_" class="st0" cx="736.5" cy="553.5" r="1.5"/>
<circle id="path-41_1_" class="st0" cx="167.5" cy="314.5" r="1.5"/>
<circle id="path-43_1_" class="st0" cx="81.5" cy="278.5" r="1.5"/>
<circle id="path-45_1_" class="st0" cx="363.5" cy="315.5" r="1.5"/>
<circle id="path-47_1_" class="st0" cx="333.5" cy="409.5" r="1.5"/>
<circle id="path-49_1_" class="st0" cx="221.5" cy="332.5" r="1.5"/>
<circle id="path-51_1_" class="st0" cx="307.5" cy="368.5" r="1.5"/>
<circle id="path-53_1_" class="st0" cx="226.5" cy="441.5" r="1.5"/>
<circle id="path-55_1_" class="st0" cx="280.5" cy="459.5" r="1.5"/>
<circle id="path-57_1_" class="st0" cx="366.5" cy="495.5" r="1.5"/>
<circle id="path-59_1_" class="st0" cx="35.5" cy="485.5" r="1.5"/>
<circle id="path-61_1_" class="st0" cx="65.5" cy="579.5" r="1.5"/>
<circle id="path-63_1_" class="st0" cx="177.5" cy="502.5" r="1.5"/>
<circle id="path-65_1_" class="st0" cx="91.5" cy="538.5" r="1.5"/>
<circle id="path-67_1_" class="st0" cx="337.5" cy="174.5" r="1.5"/>
<circle id="path-69_1_" class="st0" cx="251.5" cy="138.5" r="1.5"/>
<circle id="path-71_1_" class="st0" cx="986.5" cy="60.5" r="1.5"/>
<circle id="path-73_1_" class="st0" cx="986.5" cy="60.5" r="1.5"/>
<circle id="Oval-2_126_" class="st1" cx="442" cy="622" r="1"/>
<circle id="path-75_1_" class="st0" cx="451.5" cy="580.5" r="1.5"/>
<circle id="path-77_1_" class="st0" cx="560.5" cy="521.5" r="1.5"/>
<circle id="path-79_1_" class="st0" cx="560.5" cy="521.5" r="1.5"/>
<circle id="path-81_1_" class="st0" cx="831.5" cy="337.5" r="1.5"/>
<circle id="path-83_1_" class="st0" cx="1045.5" cy="296.5" r="1.5"/>
<circle id="path-85_1_" class="st0" cx="936.5" cy="296.5" r="1.5"/>
<circle id="path-87_1_" class="st0" cx="936.5" cy="365.5" r="1.5"/>
<circle id="path-89_1_" class="st0" cx="936.5" cy="365.5" r="1.5"/>
<circle id="path-91_1_" class="st0" cx="756.5" cy="455.5" r="1.5"/>
<circle id="path-93_1_" class="st0" cx="756.5" cy="455.5" r="1.5"/>
<circle id="path-95_1_" class="st0" cx="956.5" cy="495.5" r="1.5"/>
<circle id="path-97_1_" class="st0" cx="956.5" cy="495.5" r="1.5"/>
<circle id="path-99_1_" class="st0" cx="1126.5" cy="485.5" r="1.5"/>
<circle id="path-101_1_" class="st0" cx="1126.5" cy="485.5" r="1.5"/>
<circle id="path-103_1_" class="st0" cx="1096.5" cy="555.5" r="1.5"/>
<circle id="path-105_1_" class="st0" cx="1096.5" cy="555.5" r="1.5"/>
<circle id="path-45_2_" class="st0" cx="573.5" cy="315.5" r="1.5"/>
<circle id="path-47_2_" class="st0" cx="543.5" cy="409.5" r="1.5"/>
<circle id="path-49_2_" class="st0" cx="431.5" cy="332.5" r="1.5"/>
<circle id="path-51_2_" class="st0" cx="517.5" cy="368.5" r="1.5"/>
<circle id="path-53_2_" class="st0" cx="436.5" cy="441.5" r="1.5"/>
<circle id="path-55_2_" class="st0" cx="490.5" cy="459.5" r="1.5"/>
<circle id="path-67_2_" class="st0" cx="547.5" cy="174.5" r="1.5"/>
<circle id="path-69_2_" class="st0" cx="461.5" cy="138.5" r="1.5"/>
<circle id="path-45_4_" class="st0" cx="683.5" cy="365.5" r="1.5"/>
<circle id="path-47_4_" class="st0" cx="653.5" cy="459.5" r="1.5"/>
<circle id="path-51_4_" class="st0" cx="627.5" cy="418.5" r="1.5"/>
<ellipse id="path-45_6_" transform="matrix(0.2162 -0.9763 0.9763 0.2162 317.3683 850.4645)" class="st0" cx="688.4" cy="227.6" rx="1.5" ry="1.5"/>
<ellipse id="path-47_6_" transform="matrix(0.2162 -0.9763 0.9763 0.2162 298.9095 728.2198)" class="st0" cx="603" cy="177.9" rx="1.5" ry="1.5"/>
<ellipse id="path-51_6_" transform="matrix(0.2162 -0.9763 0.9763 0.2162 350.7686 759.8961)" class="st0" cx="648.7" cy="161.5" rx="1.5" ry="1.5"/>
<circle id="path-47_8_" class="st0" cx="793.5" cy="409.5" r="1.5"/>
<circle id="path-51_8_" class="st0" cx="767.5" cy="368.5" r="1.5"/>
<ellipse id="path-45_8_" transform="matrix(0.2197 -0.9756 0.9756 0.2197 288.8465 969.2027)" class="st0" cx="750.3" cy="304" rx="1.5" ry="1.5"/>
<ellipse id="path-45_10_" transform="matrix(0.8431 -0.5377 0.5377 0.8431 -76.7109 339.8561)" class="st0" cx="544.1" cy="301.4" rx="1.5" ry="1.5"/>
</svg>
