<?xml version="1.0" encoding="utf-8"?>
<!-- Generator: Adobe Illustrator 26.5.2, SVG Export Plug-In . SVG Version: 6.00 Build 0)  -->
<svg version="1.1" id="Laag_1" xmlns="http://www.w3.org/2000/svg" xmlns:xlink="http://www.w3.org/1999/xlink" x="0px" y="0px"
	 viewBox="0 0 881.73 836.69" style="enable-background:new 0 0 881.73 836.69;" xml:space="preserve">
<style type="text/css">
	.st0{clip-path:url(#SVGID_00000062184326238033651880000009959482379063703980_);}
	.st1{fill:#2E2B51;}
	.st2{opacity:0.5;clip-path:url(#SVGID_00000116918722597095137280000005902851669055954849_);}
	.st3{fill:none;stroke:#000000;stroke-width:0.9417;stroke-linecap:round;stroke-linejoin:round;stroke-miterlimit:10;}
	.st4{fill:#FFFFFF;}
	
		.st5{opacity:0.15;clip-path:url(#SVGID_00000062184326238033651880000009959482379063703980_);fill:url(#SVGID_00000121240126852385678490000011280478919527319461_);}
	
		.st6{opacity:0.15;clip-path:url(#SVGID_00000062184326238033651880000009959482379063703980_);fill:url(#SVGID_00000156564709748246262220000016509831047792086918_);}
	.st7{opacity:0.2;fill:url(#SVGID_00000090273139147097986890000018390812914743492771_);}
	.st8{opacity:0.2;fill:url(#SVGID_00000013182162658854764180000013006704119654853301_);}
	.st9{opacity:0.2;fill:url(#SVGID_00000115505820530329962480000008470195362618188475_);}
	.st10{fill:url(#SVGID_00000009581530684534778080000013839882173347474338_);}
	.st11{fill:#F5D0FD;}
</style>
<g>
	<defs>
		<polygon id="SVGID_1_" points="426.06,27.2 79.96,227.01 79.96,626.65 426.06,826.47 772.16,626.65 772.16,227.01 		"/>
	</defs>
	<clipPath id="SVGID_00000065783716024777614910000012708203519167444881_">
		<use xlink:href="#SVGID_1_"  style="overflow:visible;"/>
	</clipPath>
	<g style="clip-path:url(#SVGID_00000065783716024777614910000012708203519167444881_);">
		<polygon class="st1" points="1045.93,-524.36 1045.93,1406 -195.69,1408.23 -195.69,-524.36 		"/>
		<g>
			<defs>
				<polygon id="SVGID_00000091012702503786414430000017438511150012949907_" points="1047.71,-524.36 1047.71,1406 
					-193.91,1408.23 -193.91,-524.36 				"/>
			</defs>
			<clipPath id="SVGID_00000153698233745117882340000011667330071587377042_">
				<use xlink:href="#SVGID_00000091012702503786414430000017438511150012949907_"  style="overflow:visible;"/>
			</clipPath>
			<g style="opacity:0.5;clip-path:url(#SVGID_00000153698233745117882340000011667330071587377042_);">
				<g>
					<g>
						<polygon class="st3" points="15.91,899.99 74.31,933.71 132.72,899.99 191.13,933.71 74.31,1001.15 -42.5,933.71 						"/>
						<polygon class="st3" points="-42.5,1001.15 74.31,1068.53 74.31,1001.15 -42.5,933.71 						"/>
						<polygon class="st3" points="191.13,1001.15 191.13,933.71 74.31,1001.15 74.31,1068.53 						"/>
					</g>
					<g>
						<polygon class="st3" points="-42.45,1203.38 -42.45,1135.94 -100.85,1102.22 -100.85,1034.78 15.96,1102.22 15.96,1237.1 
													"/>
						<polygon class="st3" points="74.37,1203.38 74.31,1068.53 15.96,1102.22 15.96,1237.1 						"/>
						<polygon class="st3" points="-42.44,1001.06 -100.85,1034.78 15.96,1102.22 74.31,1068.53 						"/>
					</g>
					<g>
						<polygon class="st3" points="249.48,1102.22 191.07,1135.94 191.07,1203.38 132.66,1237.1 132.66,1102.22 249.48,1034.78 
													"/>
						<polygon class="st3" points="191.07,1001.06 74.31,1068.53 132.66,1102.22 249.48,1034.78 						"/>
						<polygon class="st3" points="74.26,1203.38 132.66,1237.1 132.66,1102.22 74.31,1068.53 						"/>
					</g>
				</g>
				<g>
					<g>
						<polygon class="st3" points="307.83,1001.15 366.24,1034.87 424.64,1001.15 483.05,1034.87 366.24,1102.31 249.42,1034.87 
													"/>
						<polygon class="st3" points="249.42,1102.31 366.24,1169.69 366.24,1102.31 249.42,1034.87 						"/>
						<polygon class="st3" points="483.05,1102.31 483.05,1034.87 366.24,1102.31 366.24,1169.69 						"/>
					</g>
					<g>
						<polygon class="st3" points="249.48,1304.55 249.48,1237.1 191.07,1203.38 191.07,1135.94 307.88,1203.38 307.88,1338.27 
													"/>
						<polygon class="st3" points="366.29,1304.55 366.24,1169.69 307.88,1203.38 307.88,1338.27 						"/>
						<polygon class="st3" points="249.48,1102.22 191.07,1135.94 307.88,1203.38 366.24,1169.69 						"/>
					</g>
					<g>
						<polygon class="st3" points="541.4,1203.38 482.99,1237.1 482.99,1304.55 424.59,1338.27 424.59,1203.38 541.4,1135.94 						
							"/>
						<polygon class="st3" points="482.99,1102.22 366.24,1169.69 424.59,1203.38 541.4,1135.94 						"/>
						<polygon class="st3" points="366.18,1304.55 424.59,1338.27 424.59,1203.38 366.24,1169.69 						"/>
					</g>
				</g>
				<g>
					<g>
						<polygon class="st3" points="249.48,697.66 307.88,731.38 366.29,697.66 424.7,731.38 307.88,798.82 191.07,731.38 						"/>
						<polygon class="st3" points="191.07,798.82 307.88,866.2 307.88,798.82 191.07,731.38 						"/>
						<polygon class="st3" points="424.7,798.82 424.7,731.38 307.88,798.82 307.88,866.2 						"/>
					</g>
					<g>
						<polygon class="st3" points="191.13,1001.06 191.13,933.61 132.72,899.89 132.72,832.45 249.53,899.89 249.53,1034.78 						
							"/>
						<polygon class="st3" points="307.94,1001.06 307.88,866.2 249.53,899.89 249.53,1034.78 						"/>
						<polygon class="st3" points="191.13,798.73 132.72,832.45 249.53,899.89 307.88,866.2 						"/>
					</g>
					<g>
						<polygon class="st3" points="483.05,899.89 424.64,933.61 424.64,1001.06 366.24,1034.78 366.24,899.89 483.05,832.45 						
							"/>
						<polygon class="st3" points="424.64,798.73 307.88,866.2 366.24,899.89 483.05,832.45 						"/>
						<polygon class="st3" points="307.83,1001.06 366.24,1034.78 366.24,899.89 307.88,866.2 						"/>
					</g>
				</g>
				<g>
					<g>
						<polygon class="st3" points="-42.5,596.5 15.91,630.22 74.31,596.5 132.72,630.22 15.91,697.66 -100.91,630.22 						"/>
						<polygon class="st3" points="-100.91,697.66 15.91,765.04 15.91,697.66 -100.91,630.22 						"/>
						<polygon class="st3" points="132.72,697.66 132.72,630.22 15.91,697.66 15.91,765.04 						"/>
					</g>
					<g>
						<polygon class="st3" points="-100.85,899.89 -100.85,832.45 -159.26,798.73 -159.26,731.29 -42.45,798.73 -42.45,933.61 
													"/>
						<polygon class="st3" points="15.96,899.89 15.91,765.04 -42.45,798.73 -42.45,933.61 						"/>
						<polygon class="st3" points="-100.85,697.57 -159.26,731.29 -42.45,798.73 15.91,765.04 						"/>
					</g>
					<g>
						<polygon class="st3" points="191.07,798.73 132.66,832.45 132.66,899.89 74.26,933.61 74.26,798.73 191.07,731.29 						"/>
						<polygon class="st3" points="132.66,697.57 15.91,765.04 74.26,798.73 191.07,731.29 						"/>
						<polygon class="st3" points="15.85,899.89 74.26,933.61 74.26,798.73 15.91,765.04 						"/>
					</g>
				</g>
				<g>
					<g>
						<polygon class="st3" points="-276.02,798.82 -217.61,832.55 -159.2,798.82 -100.8,832.55 -217.61,899.99 -334.42,832.55 
													"/>
						<polygon class="st3" points="-334.42,899.99 -217.61,967.37 -217.61,899.99 -334.42,832.55 						"/>
						<polygon class="st3" points="-100.8,899.99 -100.8,832.55 -217.61,899.99 -217.61,967.37 						"/>
					</g>
					<g>
						<polygon class="st3" points="-334.37,1102.22 -334.37,1034.78 -392.77,1001.06 -392.77,933.61 -275.96,1001.06 
							-275.96,1135.94 						"/>
						<polygon class="st3" points="-217.55,1102.22 -217.61,967.37 -275.96,1001.06 -275.96,1135.94 						"/>
						<polygon class="st3" points="-334.37,899.89 -392.77,933.61 -275.96,1001.06 -217.61,967.37 						"/>
					</g>
					<g>
						<polygon class="st3" points="-42.45,1001.06 -100.85,1034.78 -100.85,1102.22 -159.26,1135.94 -159.26,1001.06 -42.45,933.61 
													"/>
						<polygon class="st3" points="-100.85,899.89 -217.61,967.37 -159.26,1001.06 -42.45,933.61 						"/>
						<polygon class="st3" points="-217.67,1102.22 -159.26,1135.94 -159.26,1001.06 -217.61,967.37 						"/>
					</g>
				</g>
				<g>
					<g>
						<polygon class="st3" points="191.1,394.27 249.51,427.99 307.91,394.27 366.32,427.99 249.51,495.43 132.69,427.99 						"/>
						<polygon class="st3" points="132.69,495.43 249.51,562.81 249.51,495.43 132.69,427.99 						"/>
						<polygon class="st3" points="366.32,495.43 366.32,427.99 249.51,495.43 249.51,562.81 						"/>
					</g>
					<g>
						<polygon class="st3" points="132.75,697.66 132.75,630.22 74.34,596.5 74.34,529.06 191.15,596.5 191.15,731.38 						"/>
						<polygon class="st3" points="249.56,697.66 249.51,562.81 191.15,596.5 191.15,731.38 						"/>
						<polygon class="st3" points="132.75,495.33 74.34,529.06 191.15,596.5 249.51,562.81 						"/>
					</g>
					<g>
						<polygon class="st3" points="424.67,596.5 366.26,630.22 366.26,697.66 307.86,731.38 307.86,596.5 424.67,529.06 						"/>
						<polygon class="st3" points="366.26,495.33 249.51,562.81 307.86,596.5 424.67,529.06 						"/>
						<polygon class="st3" points="249.45,697.66 307.86,731.38 307.86,596.5 249.51,562.81 						"/>
					</g>
				</g>
				<g>
					<g>
						<polygon class="st3" points="-100.88,293.1 -42.47,326.82 15.93,293.1 74.34,326.82 -42.47,394.27 -159.29,326.82 						"/>
						<polygon class="st3" points="-159.29,394.27 -42.47,461.65 -42.47,394.27 -159.29,326.82 						"/>
						<polygon class="st3" points="74.34,394.27 74.34,326.82 -42.47,394.27 -42.47,461.65 						"/>
					</g>
					<g>
						<polygon class="st3" points="-159.23,596.5 -159.23,529.06 -217.64,495.33 -217.64,427.89 -100.82,495.33 -100.82,630.22 
													"/>
						<polygon class="st3" points="-42.42,596.5 -42.47,461.65 -100.82,495.33 -100.82,630.22 						"/>
						<polygon class="st3" points="-159.23,394.17 -217.64,427.89 -100.82,495.33 -42.47,461.65 						"/>
					</g>
					<g>
						<polygon class="st3" points="132.69,495.33 74.29,529.06 74.29,596.5 15.88,630.22 15.88,495.33 132.69,427.89 						"/>
						<polygon class="st3" points="74.29,394.17 -42.47,461.65 15.88,495.33 132.69,427.89 						"/>
						<polygon class="st3" points="-42.53,596.5 15.88,630.22 15.88,495.33 -42.47,461.65 						"/>
					</g>
				</g>
				<g>
					<g>
						<polygon class="st3" points="-334.4,495.43 -275.99,529.15 -217.58,495.43 -159.18,529.15 -275.99,596.59 -392.8,529.15 
													"/>
						<polygon class="st3" points="-392.8,596.59 -275.99,663.97 -275.99,596.59 -392.8,529.15 						"/>
						<polygon class="st3" points="-159.18,596.59 -159.18,529.15 -275.99,596.59 -275.99,663.97 						"/>
					</g>
					<g>
						<polygon class="st3" points="-392.75,798.82 -392.75,731.38 -451.15,697.66 -451.15,630.22 -334.34,697.66 -334.34,832.55 
													"/>
						<polygon class="st3" points="-275.93,798.82 -275.99,663.97 -334.34,697.66 -334.34,832.55 						"/>
						<polygon class="st3" points="-392.75,596.5 -451.15,630.22 -334.34,697.66 -275.99,663.97 						"/>
					</g>
					<g>
						<polygon class="st3" points="-100.82,697.66 -159.23,731.38 -159.23,798.82 -217.64,832.55 -217.64,697.66 -100.82,630.22 
													"/>
						<polygon class="st3" points="-159.23,596.5 -275.99,663.97 -217.64,697.66 -100.82,630.22 						"/>
						<polygon class="st3" points="-276.04,798.82 -217.64,832.55 -217.64,697.66 -275.99,663.97 						"/>
					</g>
				</g>
				<g>
					<g>
						<polygon class="st3" points="132.72,90.87 191.13,124.59 249.53,90.87 307.94,124.59 191.13,192.04 74.31,124.59 						"/>
						<polygon class="st3" points="74.31,192.04 191.13,259.41 191.13,192.04 74.31,124.59 						"/>
						<polygon class="st3" points="307.94,192.04 307.94,124.59 191.13,192.04 191.13,259.41 						"/>
					</g>
					<g>
						<polygon class="st3" points="74.37,394.27 74.37,326.82 15.96,293.1 15.96,225.66 132.77,293.1 132.77,427.99 						"/>
						<polygon class="st3" points="191.18,394.27 191.13,259.41 132.77,293.1 132.77,427.99 						"/>
						<polygon class="st3" points="74.37,191.94 15.96,225.66 132.77,293.1 191.13,259.41 						"/>
					</g>
					<g>
						<polygon class="st3" points="366.29,293.1 307.88,326.82 307.88,394.27 249.48,427.99 249.48,293.1 366.29,225.66 						"/>
						<polygon class="st3" points="307.88,191.94 191.13,259.41 249.48,293.1 366.29,225.66 						"/>
						<polygon class="st3" points="191.07,394.27 249.48,427.99 249.48,293.1 191.13,259.41 						"/>
					</g>
				</g>
				<g>
					<g>
						<polygon class="st3" points="-159.26,-10.29 -100.85,23.43 -42.44,-10.29 15.96,23.43 -100.85,90.87 -217.67,23.43 						"/>
						<polygon class="st3" points="-217.66,90.87 -100.85,158.25 -100.85,90.87 -217.67,23.43 						"/>
						<polygon class="st3" points="15.96,90.87 15.96,23.43 -100.85,90.87 -100.85,158.25 						"/>
					</g>
					<g>
						<polygon class="st3" points="-217.61,293.1 -217.61,225.66 -276.02,191.94 -276.02,124.5 -159.2,191.94 -159.2,326.82 						
							"/>
						<polygon class="st3" points="-100.8,293.1 -100.85,158.25 -159.2,191.94 -159.2,326.82 						"/>
						<polygon class="st3" points="-217.61,90.78 -276.02,124.5 -159.2,191.94 -100.85,158.25 						"/>
					</g>
					<g>
						<polygon class="st3" points="74.31,191.94 15.91,225.66 15.91,293.1 -42.5,326.82 -42.5,191.94 74.31,124.5 						"/>
						<polygon class="st3" points="15.91,90.78 -100.85,158.25 -42.5,191.94 74.31,124.5 						"/>
						<polygon class="st3" points="-100.91,293.1 -42.5,326.82 -42.5,191.94 -100.85,158.25 						"/>
					</g>
				</g>
				<g>
					<g>
						<polygon class="st3" points="-392.77,192.04 -334.37,225.76 -275.96,192.04 -217.55,225.76 -334.37,293.2 -451.18,225.76 
													"/>
						<polygon class="st3" points="-451.18,293.2 -334.37,360.58 -334.37,293.2 -451.18,225.76 						"/>
						<polygon class="st3" points="-217.55,293.2 -217.55,225.76 -334.37,293.2 -334.37,360.58 						"/>
					</g>
					<g>
						<polygon class="st3" points="-451.13,495.43 -451.13,427.99 -509.53,394.27 -509.53,326.82 -392.72,394.27 -392.72,529.15 
													"/>
						<polygon class="st3" points="-334.31,495.43 -334.37,360.58 -392.72,394.27 -392.72,529.15 						"/>
						<polygon class="st3" points="-451.13,293.1 -509.53,326.82 -392.72,394.27 -334.37,360.58 						"/>
					</g>
					<g>
						<polygon class="st3" points="-159.2,394.27 -217.61,427.99 -217.61,495.43 -276.02,529.15 -276.02,394.27 -159.2,326.82 
													"/>
						<polygon class="st3" points="-217.61,293.1 -334.37,360.58 -276.02,394.27 -159.2,326.82 						"/>
						<polygon class="st3" points="-334.42,495.43 -276.02,529.15 -276.02,394.27 -334.37,360.58 						"/>
					</g>
				</g>
				<g>
					<g>
						<polygon class="st3" points="74.34,-212.52 132.75,-178.8 191.15,-212.52 249.56,-178.8 132.75,-111.36 15.93,-178.8 						
							"/>
						<polygon class="st3" points="15.93,-111.36 132.75,-43.98 132.75,-111.36 15.93,-178.8 						"/>
						<polygon class="st3" points="249.56,-111.36 249.56,-178.8 132.75,-111.36 132.75,-43.98 						"/>
					</g>
					<g>
						<polygon class="st3" points="15.99,90.87 15.99,23.43 -42.42,-10.29 -42.42,-77.73 74.4,-10.29 74.4,124.59 						"/>
						<polygon class="st3" points="132.8,90.87 132.75,-43.98 74.4,-10.29 74.4,124.59 						"/>
						<polygon class="st3" points="15.99,-111.45 -42.42,-77.73 74.4,-10.29 132.75,-43.98 						"/>
					</g>
					<g>
						<polygon class="st3" points="307.91,-10.29 249.51,23.43 249.51,90.87 191.1,124.59 191.1,-10.29 307.91,-77.73 						"/>
						<polygon class="st3" points="249.51,-111.45 132.75,-43.98 191.1,-10.29 307.91,-77.73 						"/>
						<polygon class="st3" points="132.69,90.87 191.1,124.59 191.1,-10.29 132.75,-43.98 						"/>
					</g>
				</g>
				<g>
					<g>
						<polygon class="st3" points="-217.64,-313.69 -159.23,-279.96 -100.82,-313.69 -42.42,-279.96 -159.23,-212.52 
							-276.04,-279.96 						"/>
						<polygon class="st3" points="-276.04,-212.52 -159.23,-145.14 -159.23,-212.52 -276.04,-279.96 						"/>
						<polygon class="st3" points="-42.42,-212.52 -42.42,-279.96 -159.23,-212.52 -159.23,-145.14 						"/>
					</g>
					<g>
						<polygon class="st3" points="-275.99,-10.29 -275.99,-77.73 -334.4,-111.45 -334.4,-178.9 -217.58,-111.45 -217.58,23.43 
													"/>
						<polygon class="st3" points="-159.18,-10.29 -159.23,-145.14 -217.58,-111.45 -217.58,23.43 						"/>
						<polygon class="st3" points="-275.99,-212.62 -334.4,-178.9 -217.58,-111.45 -159.23,-145.14 						"/>
					</g>
					<g>
						<polygon class="st3" points="15.93,-111.45 -42.47,-77.73 -42.47,-10.29 -100.88,23.43 -100.88,-111.45 15.93,-178.9 						
							"/>
						<polygon class="st3" points="-42.47,-212.62 -159.23,-145.14 -100.88,-111.45 15.93,-178.9 						"/>
						<polygon class="st3" points="-159.29,-10.29 -100.88,23.43 -100.88,-111.45 -159.23,-145.14 						"/>
					</g>
				</g>
				<g>
					<g>
						<polygon class="st3" points="-451.15,-111.36 -392.75,-77.64 -334.34,-111.36 -275.93,-77.64 -392.75,-10.2 -509.56,-77.64 
													"/>
						<polygon class="st3" points="-509.56,-10.2 -392.75,57.18 -392.75,-10.2 -509.56,-77.64 						"/>
						<polygon class="st3" points="-275.93,-10.2 -275.93,-77.64 -392.75,-10.2 -392.75,57.18 						"/>
					</g>
					<g>
						<polygon class="st3" points="-509.51,192.04 -509.51,124.59 -567.91,90.87 -567.91,23.43 -451.1,90.87 -451.1,225.76 						
							"/>
						<polygon class="st3" points="-392.69,192.04 -392.75,57.18 -451.1,90.87 -451.1,225.76 						"/>
						<polygon class="st3" points="-509.51,-10.29 -567.91,23.43 -451.1,90.87 -392.75,57.18 						"/>
					</g>
					<g>
						<polygon class="st3" points="-217.58,90.87 -275.99,124.59 -275.99,192.04 -334.4,225.76 -334.4,90.87 -217.58,23.43 						
							"/>
						<polygon class="st3" points="-275.99,-10.29 -392.75,57.18 -334.4,90.87 -217.58,23.43 						"/>
						<polygon class="st3" points="-392.8,192.04 -334.4,225.76 -334.4,90.87 -392.75,57.18 						"/>
					</g>
				</g>
				<g>
					<g>
						<polygon class="st3" points="15.96,-515.92 74.37,-482.2 132.78,-515.92 191.18,-482.2 74.37,-414.75 -42.45,-482.2 						"/>
						<polygon class="st3" points="-42.44,-414.75 74.37,-347.37 74.37,-414.75 -42.45,-482.2 						"/>
						<polygon class="st3" points="191.18,-414.75 191.18,-482.2 74.37,-414.75 74.37,-347.37 						"/>
					</g>
					<g>
						<polygon class="st3" points="-42.39,-212.52 -42.39,-279.96 -100.8,-313.69 -100.8,-381.13 16.02,-313.69 16.02,-178.8 						
							"/>
						<polygon class="st3" points="74.42,-212.52 74.37,-347.37 16.02,-313.69 16.02,-178.8 						"/>
						<polygon class="st3" points="-42.39,-414.85 -100.8,-381.13 16.02,-313.69 74.37,-347.37 						"/>
					</g>
					<g>
						<polygon class="st3" points="249.53,-313.69 191.13,-279.96 191.13,-212.52 132.72,-178.8 132.72,-313.69 249.53,-381.13 
													"/>
						<polygon class="st3" points="191.13,-414.85 74.37,-347.37 132.72,-313.69 249.53,-381.13 						"/>
						<polygon class="st3" points="74.31,-212.52 132.72,-178.8 132.72,-313.69 74.37,-347.37 						"/>
					</g>
				</g>
				<g>
					<g>
						<polygon class="st3" points="-276.02,-617.08 -217.61,-583.36 -159.2,-617.08 -100.8,-583.36 -217.61,-515.92 
							-334.42,-583.36 						"/>
						<polygon class="st3" points="-334.42,-515.92 -217.61,-448.54 -217.61,-515.92 -334.42,-583.36 						"/>
						<polygon class="st3" points="-100.8,-515.92 -100.8,-583.36 -217.61,-515.92 -217.61,-448.54 						"/>
					</g>
					<g>
						<polygon class="st3" points="-334.37,-313.69 -334.37,-381.13 -392.77,-414.85 -392.77,-482.29 -275.96,-414.85 
							-275.96,-279.96 						"/>
						<polygon class="st3" points="-217.55,-313.69 -217.61,-448.54 -275.96,-414.85 -275.96,-279.96 						"/>
						<polygon class="st3" points="-334.37,-516.01 -392.77,-482.29 -275.96,-414.85 -217.61,-448.54 						"/>
					</g>
					<g>
						<polygon class="st3" points="-42.44,-414.85 -100.85,-381.13 -100.85,-313.69 -159.26,-279.96 -159.26,-414.85 
							-42.44,-482.29 						"/>
						<polygon class="st3" points="-100.85,-516.01 -217.61,-448.54 -159.26,-414.85 -42.44,-482.29 						"/>
						<polygon class="st3" points="-217.67,-313.69 -159.26,-279.96 -159.26,-414.85 -217.61,-448.54 						"/>
					</g>
				</g>
				<g>
					<g>
						<polygon class="st3" points="-509.53,-414.75 -451.13,-381.03 -392.72,-414.75 -334.31,-381.03 -451.13,-313.59 
							-567.94,-381.03 						"/>
						<polygon class="st3" points="-567.94,-313.59 -451.13,-246.21 -451.13,-313.59 -567.94,-381.03 						"/>
						<polygon class="st3" points="-334.31,-313.59 -334.31,-381.03 -451.13,-313.59 -451.13,-246.21 						"/>
					</g>
					<g>
						<polygon class="st3" points="-567.88,-111.36 -567.88,-178.8 -626.29,-212.52 -626.29,-279.96 -509.48,-212.52 
							-509.48,-77.64 						"/>
						<polygon class="st3" points="-451.07,-111.36 -451.13,-246.21 -509.48,-212.52 -509.48,-77.64 						"/>
						<polygon class="st3" points="-567.88,-313.69 -626.29,-279.96 -509.48,-212.52 -451.13,-246.21 						"/>
					</g>
					<g>
						<polygon class="st3" points="-275.96,-212.52 -334.37,-178.8 -334.37,-111.36 -392.77,-77.64 -392.77,-212.52 
							-275.96,-279.96 						"/>
						<polygon class="st3" points="-334.37,-313.69 -451.13,-246.21 -392.77,-212.52 -275.96,-279.96 						"/>
						<polygon class="st3" points="-451.18,-111.36 -392.77,-77.64 -392.77,-212.52 -451.13,-246.21 						"/>
					</g>
				</g>
				<g>
					<g>
						<polygon class="st3" points="-42.42,-819.31 15.99,-785.59 74.4,-819.31 132.8,-785.59 15.99,-718.15 -100.82,-785.59 						
							"/>
						<polygon class="st3" points="-100.82,-718.15 15.99,-650.77 15.99,-718.15 -100.82,-785.59 						"/>
						<polygon class="st3" points="132.8,-718.15 132.8,-785.59 15.99,-718.15 15.99,-650.77 						"/>
					</g>
					<g>
						<polygon class="st3" points="-100.77,-515.92 -100.77,-583.36 -159.18,-617.08 -159.18,-684.52 -42.36,-617.08 -42.36,-482.2 
													"/>
						<polygon class="st3" points="16.04,-515.92 15.99,-650.77 -42.36,-617.08 -42.36,-482.2 						"/>
						<polygon class="st3" points="-100.77,-718.24 -159.18,-684.52 -42.36,-617.08 15.99,-650.77 						"/>
					</g>
					<g>
						<polygon class="st3" points="191.15,-617.08 132.75,-583.36 132.75,-515.92 74.34,-482.2 74.34,-617.08 191.15,-684.52 						
							"/>
						<polygon class="st3" points="132.75,-718.24 15.99,-650.77 74.34,-617.08 191.15,-684.52 						"/>
						<polygon class="st3" points="15.93,-515.92 74.34,-482.2 74.34,-617.08 15.99,-650.77 						"/>
					</g>
				</g>
				<g>
					<g>
						<polygon class="st3" points="599.81,1102.31 658.21,1136.04 716.62,1102.31 775.03,1136.04 658.21,1203.48 541.4,1136.04 
													"/>
						<polygon class="st3" points="541.4,1203.48 658.21,1270.86 658.21,1203.48 541.4,1136.04 						"/>
						<polygon class="st3" points="775.03,1203.48 775.03,1136.04 658.21,1203.48 658.21,1270.86 						"/>
					</g>
					<g>
						<polygon class="st3" points="541.46,1405.71 541.46,1338.27 483.05,1304.55 483.05,1237.1 599.86,1304.55 599.86,1439.43 
													"/>
						<polygon class="st3" points="658.27,1405.71 658.21,1270.86 599.86,1304.55 599.86,1439.43 						"/>
						<polygon class="st3" points="541.46,1203.38 483.05,1237.1 599.86,1304.55 658.21,1270.86 						"/>
					</g>
					<g>
						<polygon class="st3" points="833.38,1304.55 774.97,1338.27 774.97,1405.71 716.57,1439.43 716.57,1304.55 833.38,1237.1 
													"/>
						<polygon class="st3" points="774.97,1203.38 658.21,1270.86 716.57,1304.55 833.38,1237.1 						"/>
						<polygon class="st3" points="658.16,1405.71 716.57,1439.43 716.57,1304.55 658.21,1270.86 						"/>
					</g>
				</g>
				<g>
					<g>
						<polygon class="st3" points="541.46,798.82 599.86,832.55 658.27,798.82 716.68,832.55 599.86,899.99 483.05,832.55 						"/>
						<polygon class="st3" points="483.05,899.99 599.86,967.37 599.86,899.99 483.05,832.55 						"/>
						<polygon class="st3" points="716.68,899.99 716.68,832.55 599.86,899.99 599.86,967.37 						"/>
					</g>
					<g>
						<polygon class="st3" points="483.1,1102.22 483.1,1034.78 424.7,1001.06 424.7,933.61 541.51,1001.06 541.51,1135.94 						
							"/>
						<polygon class="st3" points="599.92,1102.22 599.86,967.37 541.51,1001.06 541.51,1135.94 						"/>
						<polygon class="st3" points="483.1,899.89 424.7,933.61 541.51,1001.06 599.86,967.37 						"/>
					</g>
					<g>
						<polygon class="st3" points="775.03,1001.06 716.62,1034.78 716.62,1102.22 658.21,1135.94 658.21,1001.06 775.03,933.61 
													"/>
						<polygon class="st3" points="716.62,899.89 599.86,967.37 658.21,1001.06 775.03,933.61 						"/>
						<polygon class="st3" points="599.81,1102.22 658.21,1135.94 658.21,1001.06 599.86,967.37 						"/>
					</g>
				</g>
				<g>
					<g>
						<polygon class="st3" points="483.08,495.43 541.48,529.15 599.89,495.43 658.3,529.15 541.48,596.59 424.67,529.15 						"/>
						<polygon class="st3" points="424.67,596.59 541.48,663.97 541.48,596.59 424.67,529.15 						"/>
						<polygon class="st3" points="658.3,596.59 658.3,529.15 541.48,596.59 541.48,663.97 						"/>
					</g>
					<g>
						<polygon class="st3" points="424.73,798.82 424.73,731.38 366.32,697.66 366.32,630.22 483.13,697.66 483.13,832.55 						"/>
						<polygon class="st3" points="541.54,798.82 541.48,663.97 483.13,697.66 483.13,832.55 						"/>
						<polygon class="st3" points="424.73,596.5 366.32,630.22 483.13,697.66 541.48,663.97 						"/>
					</g>
					<g>
						<polygon class="st3" points="716.65,697.66 658.24,731.38 658.24,798.82 599.84,832.55 599.84,697.66 716.65,630.22 						"/>
						<polygon class="st3" points="658.24,596.5 541.48,663.97 599.84,697.66 716.65,630.22 						"/>
						<polygon class="st3" points="541.43,798.82 599.84,832.55 599.84,697.66 541.48,663.97 						"/>
					</g>
				</g>
				<g>
					<g>
						<polygon class="st3" points="424.7,192.04 483.1,225.76 541.51,192.04 599.92,225.76 483.1,293.2 366.29,225.76 						"/>
						<polygon class="st3" points="366.29,293.2 483.1,360.58 483.1,293.2 366.29,225.76 						"/>
						<polygon class="st3" points="599.92,293.2 599.92,225.76 483.1,293.2 483.1,360.58 						"/>
					</g>
					<g>
						<polygon class="st3" points="366.35,495.43 366.35,427.99 307.94,394.27 307.94,326.82 424.75,394.27 424.75,529.15 						"/>
						<polygon class="st3" points="483.16,495.43 483.1,360.58 424.75,394.27 424.75,529.15 						"/>
						<polygon class="st3" points="366.35,293.1 307.94,326.82 424.75,394.27 483.1,360.58 						"/>
					</g>
					<g>
						<polygon class="st3" points="658.27,394.27 599.86,427.99 599.86,495.43 541.46,529.15 541.46,394.27 658.27,326.82 						"/>
						<polygon class="st3" points="599.86,293.1 483.1,360.58 541.46,394.27 658.27,326.82 						"/>
						<polygon class="st3" points="483.05,495.43 541.46,529.15 541.46,394.27 483.1,360.58 						"/>
					</g>
				</g>
				<g>
					<g>
						<polygon class="st3" points="366.32,-111.36 424.73,-77.64 483.13,-111.36 541.54,-77.64 424.73,-10.2 307.91,-77.64 						
							"/>
						<polygon class="st3" points="307.91,-10.2 424.73,57.18 424.73,-10.2 307.91,-77.64 						"/>
						<polygon class="st3" points="541.54,-10.2 541.54,-77.64 424.73,-10.2 424.73,57.18 						"/>
					</g>
					<g>
						<polygon class="st3" points="307.97,192.04 307.97,124.59 249.56,90.87 249.56,23.43 366.37,90.87 366.37,225.76 						"/>
						<polygon class="st3" points="424.78,192.04 424.73,57.18 366.37,90.87 366.37,225.76 						"/>
						<polygon class="st3" points="307.97,-10.29 249.56,23.43 366.37,90.87 424.73,57.18 						"/>
					</g>
					<g>
						<polygon class="st3" points="599.89,90.87 541.48,124.59 541.48,192.04 483.08,225.76 483.08,90.87 599.89,23.43 						"/>
						<polygon class="st3" points="541.48,-10.29 424.73,57.18 483.08,90.87 599.89,23.43 						"/>
						<polygon class="st3" points="424.67,192.04 483.08,225.76 483.08,90.87 424.73,57.18 						"/>
					</g>
				</g>
				<g>
					<g>
						<polygon class="st3" points="307.94,-414.75 366.35,-381.03 424.75,-414.75 483.16,-381.03 366.35,-313.59 249.53,-381.03 
													"/>
						<polygon class="st3" points="249.53,-313.59 366.35,-246.21 366.35,-313.59 249.53,-381.03 						"/>
						<polygon class="st3" points="483.16,-313.59 483.16,-381.03 366.35,-313.59 366.35,-246.21 						"/>
					</g>
					<g>
						<polygon class="st3" points="249.59,-111.36 249.59,-178.8 191.18,-212.52 191.18,-279.96 308,-212.52 308,-77.64 						"/>
						<polygon class="st3" points="366.4,-111.36 366.35,-246.21 308,-212.52 308,-77.64 						"/>
						<polygon class="st3" points="249.59,-313.69 191.18,-279.96 308,-212.52 366.35,-246.21 						"/>
					</g>
					<g>
						<polygon class="st3" points="541.51,-212.52 483.1,-178.8 483.1,-111.36 424.7,-77.64 424.7,-212.52 541.51,-279.96 						"/>
						<polygon class="st3" points="483.1,-313.69 366.35,-246.21 424.7,-212.52 541.51,-279.96 						"/>
						<polygon class="st3" points="366.29,-111.36 424.7,-77.64 424.7,-212.52 366.35,-246.21 						"/>
					</g>
				</g>
				<g>
					<g>
						<polygon class="st3" points="249.56,-718.15 307.97,-684.43 366.37,-718.15 424.78,-684.43 307.97,-616.98 191.15,-684.43 
													"/>
						<polygon class="st3" points="191.15,-616.98 307.97,-549.61 307.97,-616.98 191.15,-684.43 						"/>
						<polygon class="st3" points="424.78,-616.98 424.78,-684.43 307.97,-616.98 307.97,-549.61 						"/>
					</g>
					<g>
						<polygon class="st3" points="191.21,-414.75 191.21,-482.2 132.8,-515.92 132.8,-583.36 249.62,-515.92 249.62,-381.03 						
							"/>
						<polygon class="st3" points="308.02,-414.75 307.97,-549.61 249.62,-515.92 249.62,-381.03 						"/>
						<polygon class="st3" points="191.21,-617.08 132.8,-583.36 249.62,-515.92 307.97,-549.61 						"/>
					</g>
					<g>
						<polygon class="st3" points="483.13,-515.92 424.73,-482.2 424.73,-414.75 366.32,-381.03 366.32,-515.92 483.13,-583.36 
													"/>
						<polygon class="st3" points="424.73,-617.08 307.97,-549.61 366.32,-515.92 483.13,-583.36 						"/>
						<polygon class="st3" points="307.91,-414.75 366.32,-381.03 366.32,-515.92 307.97,-549.61 						"/>
					</g>
				</g>
				<g>
					<g>
						<polygon class="st3" points="891.79,1203.48 950.19,1237.2 1008.6,1203.48 1067.01,1237.2 950.19,1304.64 833.38,1237.2 
													"/>
						<polygon class="st3" points="833.38,1304.64 950.19,1372.02 950.19,1304.64 833.38,1237.2 						"/>
						<polygon class="st3" points="1067.01,1304.64 1067.01,1237.2 950.19,1304.64 950.19,1372.02 						"/>
					</g>
					<g>
						<polygon class="st3" points="833.43,1506.87 833.43,1439.43 775.03,1405.71 775.03,1338.27 891.84,1405.71 891.84,1540.59 
													"/>
						<polygon class="st3" points="950.25,1506.87 950.19,1372.02 891.84,1405.71 891.84,1540.59 						"/>
						<polygon class="st3" points="833.43,1304.55 775.03,1338.27 891.84,1405.71 950.19,1372.02 						"/>
					</g>
					<g>
						<polygon class="st3" points="1125.36,1405.71 1066.95,1439.43 1066.95,1506.87 1008.54,1540.59 1008.54,1405.71 
							1125.36,1338.27 						"/>
						<polygon class="st3" points="1066.95,1304.55 950.19,1372.02 1008.54,1405.71 1125.36,1338.27 						"/>
						<polygon class="st3" points="950.14,1506.87 1008.54,1540.59 1008.54,1405.71 950.19,1372.02 						"/>
					</g>
				</g>
				<g>
					<g>
						<polygon class="st3" points="833.43,899.99 891.84,933.71 950.25,899.99 1008.65,933.71 891.84,1001.15 775.03,933.71 						
							"/>
						<polygon class="st3" points="775.03,1001.15 891.84,1068.53 891.84,1001.15 775.03,933.71 						"/>
						<polygon class="st3" points="1008.65,1001.15 1008.65,933.71 891.84,1001.15 891.84,1068.53 						"/>
					</g>
					<g>
						<polygon class="st3" points="775.08,1203.38 775.08,1135.94 716.68,1102.22 716.68,1034.78 833.49,1102.22 833.49,1237.1 
													"/>
						<polygon class="st3" points="891.9,1203.38 891.84,1068.53 833.49,1102.22 833.49,1237.1 						"/>
						<polygon class="st3" points="775.08,1001.06 716.68,1034.78 833.49,1102.22 891.84,1068.53 						"/>
					</g>
					<g>
						<polygon class="st3" points="1067.01,1102.22 1008.6,1135.94 1008.6,1203.38 950.19,1237.1 950.19,1102.22 1067.01,1034.78 
													"/>
						<polygon class="st3" points="1008.6,1001.06 891.84,1068.53 950.19,1102.22 1067.01,1034.78 						"/>
						<polygon class="st3" points="891.79,1203.38 950.19,1237.1 950.19,1102.22 891.84,1068.53 						"/>
					</g>
				</g>
				<g>
					<g>
						<polygon class="st3" points="775.06,596.59 833.46,630.31 891.87,596.59 950.28,630.31 833.46,697.76 716.65,630.31 						"/>
						<polygon class="st3" points="716.65,697.76 833.46,765.14 833.46,697.76 716.65,630.31 						"/>
						<polygon class="st3" points="950.28,697.76 950.28,630.31 833.46,697.76 833.46,765.14 						"/>
					</g>
					<g>
						<polygon class="st3" points="716.7,899.99 716.7,832.55 658.3,798.82 658.3,731.38 775.11,798.82 775.11,933.71 						"/>
						<polygon class="st3" points="833.52,899.99 833.46,765.14 775.11,798.82 775.11,933.71 						"/>
						<polygon class="st3" points="716.7,697.66 658.3,731.38 775.11,798.82 833.46,765.14 						"/>
					</g>
					<g>
						<polygon class="st3" points="1008.63,798.82 950.22,832.55 950.22,899.99 891.81,933.71 891.81,798.82 1008.63,731.38 						
							"/>
						<polygon class="st3" points="950.22,697.66 833.46,765.14 891.81,798.82 1008.63,731.38 						"/>
						<polygon class="st3" points="833.41,899.99 891.81,933.71 891.81,798.82 833.46,765.14 						"/>
					</g>
				</g>
				<g>
					<g>
						<polygon class="st3" points="716.68,293.2 775.08,326.92 833.49,293.2 891.9,326.92 775.08,394.36 658.27,326.92 						"/>
						<polygon class="st3" points="658.27,394.36 775.08,461.74 775.08,394.36 658.27,326.92 						"/>
						<polygon class="st3" points="891.9,394.36 891.9,326.92 775.08,394.36 775.08,461.74 						"/>
					</g>
					<g>
						<polygon class="st3" points="658.32,596.59 658.32,529.15 599.92,495.43 599.92,427.99 716.73,495.43 716.73,630.31 						"/>
						<polygon class="st3" points="775.14,596.59 775.08,461.74 716.73,495.43 716.73,630.31 						"/>
						<polygon class="st3" points="658.32,394.27 599.92,427.99 716.73,495.43 775.08,461.74 						"/>
					</g>
					<g>
						<polygon class="st3" points="950.25,495.43 891.84,529.15 891.84,596.59 833.43,630.31 833.43,495.43 950.25,427.99 						"/>
						<polygon class="st3" points="891.84,394.27 775.08,461.74 833.43,495.43 950.25,427.99 						"/>
						<polygon class="st3" points="775.03,596.59 833.43,630.31 833.43,495.43 775.08,461.74 						"/>
					</g>
				</g>
				<g>
					<g>
						<polygon class="st3" points="658.3,-10.2 716.7,23.53 775.11,-10.2 833.52,23.53 716.7,90.97 599.89,23.53 						"/>
						<polygon class="st3" points="599.89,90.97 716.7,158.35 716.7,90.97 599.89,23.53 						"/>
						<polygon class="st3" points="833.52,90.97 833.52,23.53 716.7,90.97 716.7,158.35 						"/>
					</g>
					<g>
						<polygon class="st3" points="599.95,293.2 599.95,225.76 541.54,192.04 541.54,124.59 658.35,192.04 658.35,326.92 						"/>
						<polygon class="st3" points="716.76,293.2 716.7,158.35 658.35,192.04 658.35,326.92 						"/>
						<polygon class="st3" points="599.95,90.87 541.54,124.59 658.35,192.04 716.7,158.35 						"/>
					</g>
					<g>
						<polygon class="st3" points="891.87,192.04 833.46,225.76 833.46,293.2 775.06,326.92 775.06,192.04 891.87,124.59 						"/>
						<polygon class="st3" points="833.46,90.87 716.7,158.35 775.06,192.04 891.87,124.59 						"/>
						<polygon class="st3" points="716.65,293.2 775.06,326.92 775.06,192.04 716.7,158.35 						"/>
					</g>
				</g>
				<g>
					<g>
						<polygon class="st3" points="599.92,-313.59 658.32,-279.87 716.73,-313.59 775.14,-279.87 658.32,-212.43 541.51,-279.87 
													"/>
						<polygon class="st3" points="541.51,-212.43 658.32,-145.05 658.32,-212.43 541.51,-279.87 						"/>
						<polygon class="st3" points="775.14,-212.43 775.14,-279.87 658.32,-212.43 658.32,-145.05 						"/>
					</g>
					<g>
						<polygon class="st3" points="541.57,-10.2 541.57,-77.64 483.16,-111.36 483.16,-178.8 599.97,-111.36 599.97,23.53 						"/>
						<polygon class="st3" points="658.38,-10.2 658.32,-145.05 599.97,-111.36 599.97,23.53 						"/>
						<polygon class="st3" points="541.57,-212.52 483.16,-178.8 599.97,-111.36 658.32,-145.05 						"/>
					</g>
					<g>
						<polygon class="st3" points="833.49,-111.36 775.08,-77.64 775.08,-10.2 716.68,23.53 716.68,-111.36 833.49,-178.8 						"/>
						<polygon class="st3" points="775.08,-212.52 658.32,-145.05 716.68,-111.36 833.49,-178.8 						"/>
						<polygon class="st3" points="658.27,-10.2 716.68,23.53 716.68,-111.36 658.32,-145.05 						"/>
					</g>
				</g>
				<g>
					<g>
						<polygon class="st3" points="541.54,-616.98 599.95,-583.26 658.35,-616.98 716.76,-583.26 599.95,-515.82 483.13,-583.26 
													"/>
						<polygon class="st3" points="483.13,-515.82 599.95,-448.44 599.95,-515.82 483.13,-583.26 						"/>
						<polygon class="st3" points="716.76,-515.82 716.76,-583.26 599.95,-515.82 599.95,-448.44 						"/>
					</g>
					<g>
						<polygon class="st3" points="483.19,-313.59 483.19,-381.03 424.78,-414.75 424.78,-482.2 541.59,-414.75 541.59,-279.87 
													"/>
						<polygon class="st3" points="600,-313.59 599.95,-448.44 541.59,-414.75 541.59,-279.87 						"/>
						<polygon class="st3" points="483.19,-515.92 424.78,-482.2 541.59,-414.75 599.95,-448.44 						"/>
					</g>
					<g>
						<polygon class="st3" points="775.11,-414.75 716.7,-381.03 716.7,-313.59 658.3,-279.87 658.3,-414.75 775.11,-482.2 						
							"/>
						<polygon class="st3" points="716.7,-515.92 599.95,-448.44 658.3,-414.75 775.11,-482.2 						"/>
						<polygon class="st3" points="599.89,-313.59 658.3,-279.87 658.3,-414.75 599.95,-448.44 						"/>
					</g>
				</g>
				<g>
					<g>
						<polygon class="st3" points="191.04,-1021.54 249.45,-987.82 307.86,-1021.54 366.26,-987.82 249.45,-920.38 132.64,-987.82 
													"/>
						<polygon class="st3" points="132.64,-920.38 249.45,-853 249.45,-920.38 132.64,-987.82 						"/>
						<polygon class="st3" points="366.26,-920.38 366.26,-987.82 249.45,-920.38 249.45,-853 						"/>
					</g>
					<g>
						<polygon class="st3" points="132.69,-718.15 132.69,-785.59 74.29,-819.31 74.29,-886.75 191.1,-819.31 191.1,-684.43 						
							"/>
						<polygon class="st3" points="249.51,-718.15 249.45,-853 191.1,-819.31 191.1,-684.43 						"/>
						<polygon class="st3" points="132.69,-920.47 74.29,-886.75 191.1,-819.31 249.45,-853 						"/>
					</g>
					<g>
						<polygon class="st3" points="424.62,-819.31 366.21,-785.59 366.21,-718.15 307.8,-684.43 307.8,-819.31 424.62,-886.75 
													"/>
						<polygon class="st3" points="366.21,-920.47 249.45,-853 307.8,-819.31 424.62,-886.75 						"/>
						<polygon class="st3" points="249.4,-718.15 307.8,-684.43 307.8,-819.31 249.45,-853 						"/>
					</g>
				</g>
				<g>
					<g>
						<polygon class="st3" points="483.02,-920.49 541.43,-886.77 599.84,-920.49 658.24,-886.77 541.43,-819.33 424.62,-886.77 
													"/>
						<polygon class="st3" points="424.62,-819.33 541.43,-751.95 541.43,-819.33 424.62,-886.77 						"/>
						<polygon class="st3" points="658.24,-819.33 658.24,-886.77 541.43,-819.33 541.43,-751.95 						"/>
					</g>
					<g>
						<polygon class="st3" points="424.67,-617.1 424.67,-684.54 366.26,-718.26 366.26,-785.7 483.08,-718.26 483.08,-583.37 
													"/>
						<polygon class="st3" points="541.48,-617.1 541.43,-751.95 483.08,-718.26 483.08,-583.37 						"/>
						<polygon class="st3" points="424.67,-819.42 366.26,-785.7 483.08,-718.26 541.43,-751.95 						"/>
					</g>
					<g>
						<polygon class="st3" points="716.59,-718.26 658.19,-684.54 658.19,-617.1 599.78,-583.37 599.78,-718.26 716.59,-785.7 
													"/>
						<polygon class="st3" points="658.19,-819.42 541.43,-751.95 599.78,-718.26 716.59,-785.7 						"/>
						<polygon class="st3" points="541.37,-617.1 599.78,-583.37 599.78,-718.26 541.43,-751.95 						"/>
					</g>
				</g>
				<g>
					<g>
						<polygon class="st3" points="775.03,-819.33 833.43,-785.61 891.84,-819.33 950.25,-785.61 833.43,-718.16 716.62,-785.61 
													"/>
						<polygon class="st3" points="716.62,-718.16 833.43,-650.79 833.43,-718.16 716.62,-785.61 						"/>
						<polygon class="st3" points="950.25,-718.16 950.25,-785.61 833.43,-718.16 833.43,-650.79 						"/>
					</g>
					<g>
						<polygon class="st3" points="716.68,-515.93 716.68,-583.38 658.27,-617.1 658.27,-684.54 775.08,-617.1 775.08,-482.21 
													"/>
						<polygon class="st3" points="833.49,-515.93 833.43,-650.79 775.08,-617.1 775.08,-482.21 						"/>
						<polygon class="st3" points="716.68,-718.26 658.27,-684.54 775.08,-617.1 833.43,-650.79 						"/>
					</g>
					<g>
						<polygon class="st3" points="1008.6,-617.1 950.19,-583.37 950.19,-515.93 891.79,-482.21 891.79,-617.1 1008.6,-684.54 
													"/>
						<polygon class="st3" points="950.19,-718.26 833.43,-650.79 891.79,-617.1 1008.6,-684.54 						"/>
						<polygon class="st3" points="833.38,-515.93 891.79,-482.21 891.79,-617.1 833.43,-650.79 						"/>
					</g>
				</g>
				<g>
					<g>
						<polygon class="st3" points="1183.76,1304.64 1242.17,1338.36 1300.58,1304.64 1358.98,1338.36 1242.17,1405.8 
							1125.36,1338.36 						"/>
						<polygon class="st3" points="1125.36,1405.8 1242.17,1473.18 1242.17,1405.8 1125.36,1338.36 						"/>
						<polygon class="st3" points="1358.98,1405.8 1358.98,1338.36 1242.17,1405.8 1242.17,1473.18 						"/>
					</g>
					<g>
						<polygon class="st3" points="1125.41,1608.04 1125.41,1540.59 1067.01,1506.87 1067.01,1439.43 1183.82,1506.87 
							1183.82,1641.76 						"/>
						<polygon class="st3" points="1242.23,1608.04 1242.17,1473.18 1183.82,1506.87 1183.82,1641.76 						"/>
						<polygon class="st3" points="1125.41,1405.71 1067.01,1439.43 1183.82,1506.87 1242.17,1473.18 						"/>
					</g>
					<g>
						<polygon class="st3" points="1417.34,1506.87 1358.93,1540.59 1358.93,1608.04 1300.52,1641.76 1300.52,1506.87 
							1417.34,1439.43 						"/>
						<polygon class="st3" points="1358.93,1405.71 1242.17,1473.18 1300.52,1506.87 1417.34,1439.43 						"/>
						<polygon class="st3" points="1242.12,1608.04 1300.52,1641.76 1300.52,1506.87 1242.17,1473.18 						"/>
					</g>
				</g>
				<g>
					<g>
						<polygon class="st3" points="1358.93,798.81 1417.34,832.53 1475.74,798.81 1534.15,832.53 1417.34,899.97 1300.52,832.53 
													"/>
						<polygon class="st3" points="1300.52,899.97 1417.34,967.35 1417.34,899.97 1300.52,832.53 						"/>
						<polygon class="st3" points="1534.15,899.97 1534.15,832.53 1417.34,899.97 1417.34,967.35 						"/>
					</g>
					<g>
						<polygon class="st3" points="1300.58,1102.2 1300.58,1034.76 1242.17,1001.04 1242.17,933.6 1358.98,1001.04 1358.98,1135.92 
													"/>
						<polygon class="st3" points="1417.39,1102.2 1417.34,967.35 1358.98,1001.04 1358.98,1135.92 						"/>
						<polygon class="st3" points="1300.58,899.88 1242.17,933.6 1358.98,1001.04 1417.34,967.35 						"/>
					</g>
					<g>
						<polygon class="st3" points="1592.5,1001.04 1534.09,1034.76 1534.09,1102.2 1475.69,1135.92 1475.69,1001.04 1592.5,933.6 
													"/>
						<polygon class="st3" points="1534.09,899.88 1417.34,967.35 1475.69,1001.04 1592.5,933.6 						"/>
						<polygon class="st3" points="1417.28,1102.2 1475.69,1135.92 1475.69,1001.04 1417.34,967.35 						"/>
					</g>
				</g>
				<g>
					<g>
						<polygon class="st3" points="1125.41,1001.15 1183.82,1034.87 1242.23,1001.15 1300.63,1034.87 1183.82,1102.31 
							1067.01,1034.87 						"/>
						<polygon class="st3" points="1067.01,1102.31 1183.82,1169.69 1183.82,1102.31 1067.01,1034.87 						"/>
						<polygon class="st3" points="1300.63,1102.31 1300.63,1034.87 1183.82,1102.31 1183.82,1169.69 						"/>
					</g>
					<g>
						<polygon class="st3" points="1067.06,1304.55 1067.06,1237.1 1008.65,1203.38 1008.65,1135.94 1125.47,1203.38 
							1125.47,1338.27 						"/>
						<polygon class="st3" points="1183.87,1304.55 1183.82,1169.69 1125.47,1203.38 1125.47,1338.27 						"/>
						<polygon class="st3" points="1067.06,1102.22 1008.65,1135.94 1125.47,1203.38 1183.82,1169.69 						"/>
					</g>
					<g>
						<polygon class="st3" points="1358.98,1203.38 1300.58,1237.1 1300.58,1304.55 1242.17,1338.27 1242.17,1203.38 
							1358.98,1135.94 						"/>
						<polygon class="st3" points="1300.58,1102.22 1183.82,1169.69 1242.17,1203.38 1358.98,1135.94 						"/>
						<polygon class="st3" points="1183.76,1304.55 1242.17,1338.27 1242.17,1203.38 1183.82,1169.69 						"/>
					</g>
				</g>
				<g>
					<g>
						<polygon class="st3" points="1067.03,697.76 1125.44,731.48 1183.85,697.76 1242.25,731.48 1125.44,798.92 1008.63,731.48 
													"/>
						<polygon class="st3" points="1008.63,798.92 1125.44,866.3 1125.44,798.92 1008.63,731.48 						"/>
						<polygon class="st3" points="1242.25,798.92 1242.25,731.48 1125.44,798.92 1125.44,866.3 						"/>
					</g>
					<g>
						<polygon class="st3" points="1008.68,1001.15 1008.68,933.71 950.28,899.99 950.28,832.55 1067.09,899.99 1067.09,1034.87 
													"/>
						<polygon class="st3" points="1125.5,1001.15 1125.44,866.3 1067.09,899.99 1067.09,1034.87 						"/>
						<polygon class="st3" points="1008.68,798.82 950.28,832.55 1067.09,899.99 1125.44,866.3 						"/>
					</g>
					<g>
						<polygon class="st3" points="1300.61,899.99 1242.2,933.71 1242.2,1001.15 1183.79,1034.87 1183.79,899.99 1300.61,832.55 
													"/>
						<polygon class="st3" points="1242.2,798.82 1125.44,866.3 1183.79,899.99 1300.61,832.55 						"/>
						<polygon class="st3" points="1125.39,1001.15 1183.79,1034.87 1183.79,899.99 1125.44,866.3 						"/>
					</g>
				</g>
				<g>
					<g>
						<polygon class="st3" points="1008.65,394.36 1067.06,428.08 1125.47,394.36 1183.87,428.08 1067.06,495.53 950.25,428.08 
													"/>
						<polygon class="st3" points="950.25,495.53 1067.06,562.9 1067.06,495.53 950.25,428.08 						"/>
						<polygon class="st3" points="1183.87,495.53 1183.87,428.08 1067.06,495.53 1067.06,562.9 						"/>
					</g>
					<g>
						<polygon class="st3" points="950.3,697.76 950.3,630.31 891.9,596.59 891.9,529.15 1008.71,596.59 1008.71,731.48 						"/>
						<polygon class="st3" points="1067.12,697.76 1067.06,562.9 1008.71,596.59 1008.71,731.48 						"/>
						<polygon class="st3" points="950.3,495.43 891.9,529.15 1008.71,596.59 1067.06,562.9 						"/>
					</g>
					<g>
						<polygon class="st3" points="1242.23,596.59 1183.82,630.31 1183.82,697.76 1125.41,731.48 1125.41,596.59 1242.23,529.15 
													"/>
						<polygon class="st3" points="1183.82,495.43 1067.06,562.9 1125.41,596.59 1242.23,529.15 						"/>
						<polygon class="st3" points="1067.01,697.76 1125.41,731.48 1125.41,596.59 1067.06,562.9 						"/>
					</g>
				</g>
				<g>
					<g>
						<polygon class="st3" points="950.28,90.97 1008.68,124.69 1067.09,90.97 1125.5,124.69 1008.68,192.13 891.87,124.69 						
							"/>
						<polygon class="st3" points="891.87,192.13 1008.68,259.51 1008.68,192.13 891.87,124.69 						"/>
						<polygon class="st3" points="1125.5,192.13 1125.5,124.69 1008.68,192.13 1008.68,259.51 						"/>
					</g>
					<g>
						<polygon class="st3" points="891.92,394.36 891.92,326.92 833.52,293.2 833.52,225.76 950.33,293.2 950.33,428.08 						"/>
						<polygon class="st3" points="1008.74,394.36 1008.68,259.51 950.33,293.2 950.33,428.08 						"/>
						<polygon class="st3" points="891.92,192.04 833.52,225.76 950.33,293.2 1008.68,259.51 						"/>
					</g>
					<g>
						<polygon class="st3" points="1183.85,293.2 1125.44,326.92 1125.44,394.36 1067.03,428.08 1067.03,293.2 1183.85,225.76 
													"/>
						<polygon class="st3" points="1125.44,192.04 1008.68,259.51 1067.03,293.2 1183.85,225.76 						"/>
						<polygon class="st3" points="1008.63,394.36 1067.03,428.08 1067.03,293.2 1008.68,259.51 						"/>
					</g>
				</g>
				<g>
					<g>
						<polygon class="st3" points="891.9,-212.43 950.3,-178.71 1008.71,-212.43 1067.12,-178.71 950.3,-111.26 833.49,-178.71 
													"/>
						<polygon class="st3" points="833.49,-111.26 950.3,-43.88 950.3,-111.26 833.49,-178.71 						"/>
						<polygon class="st3" points="1067.12,-111.26 1067.12,-178.71 950.3,-111.26 950.3,-43.88 						"/>
					</g>
					<g>
						<polygon class="st3" points="833.54,90.97 833.54,23.53 775.14,-10.2 775.14,-77.64 891.95,-10.2 891.95,124.69 						"/>
						<polygon class="st3" points="950.36,90.97 950.3,-43.88 891.95,-10.2 891.95,124.69 						"/>
						<polygon class="st3" points="833.54,-111.36 775.14,-77.64 891.95,-10.2 950.3,-43.88 						"/>
					</g>
					<g>
						<polygon class="st3" points="1125.47,-10.2 1067.06,23.53 1067.06,90.97 1008.65,124.69 1008.65,-10.2 1125.47,-77.64 						
							"/>
						<polygon class="st3" points="1067.06,-111.36 950.3,-43.88 1008.65,-10.2 1125.47,-77.64 						"/>
						<polygon class="st3" points="950.25,90.97 1008.65,124.69 1008.65,-10.2 950.3,-43.88 						"/>
					</g>
				</g>
				<g>
					<g>
						<polygon class="st3" points="833.52,-515.82 891.92,-482.1 950.33,-515.82 1008.74,-482.1 891.92,-414.66 775.11,-482.1 
													"/>
						<polygon class="st3" points="775.11,-414.66 891.92,-347.28 891.92,-414.66 775.11,-482.1 						"/>
						<polygon class="st3" points="1008.74,-414.66 1008.74,-482.1 891.92,-414.66 891.92,-347.28 						"/>
					</g>
					<g>
						<polygon class="st3" points="775.17,-212.43 775.17,-279.87 716.76,-313.59 716.76,-381.03 833.57,-313.59 833.57,-178.71 
													"/>
						<polygon class="st3" points="891.98,-212.43 891.92,-347.28 833.57,-313.59 833.57,-178.71 						"/>
						<polygon class="st3" points="775.17,-414.75 716.76,-381.03 833.57,-313.59 891.92,-347.28 						"/>
					</g>
					<g>
						<polygon class="st3" points="1067.09,-313.59 1008.68,-279.87 1008.68,-212.43 950.28,-178.71 950.28,-313.59 
							1067.09,-381.03 						"/>
						<polygon class="st3" points="1008.68,-414.75 891.92,-347.28 950.28,-313.59 1067.09,-381.03 						"/>
						<polygon class="st3" points="891.87,-212.43 950.28,-178.71 950.28,-313.59 891.92,-347.28 						"/>
					</g>
				</g>
				<g>
					<g>
						<polygon class="st3" points="1066.92,-718.22 1125.33,-684.5 1183.74,-718.22 1242.14,-684.5 1125.33,-617.06 1008.52,-684.5 
													"/>
						<polygon class="st3" points="1008.52,-617.06 1125.33,-549.68 1125.33,-617.06 1008.52,-684.5 						"/>
						<polygon class="st3" points="1242.14,-617.06 1242.14,-684.5 1125.33,-617.06 1125.33,-549.68 						"/>
					</g>
					<g>
						<polygon class="st3" points="1008.57,-414.83 1008.57,-482.27 950.17,-515.99 950.17,-583.43 1066.98,-515.99 1066.98,-381.1 
													"/>
						<polygon class="st3" points="1125.39,-414.83 1125.33,-549.68 1066.98,-515.99 1066.98,-381.1 						"/>
						<polygon class="st3" points="1008.57,-617.15 950.17,-583.43 1066.98,-515.99 1125.33,-549.68 						"/>
					</g>
					<g>
						<polygon class="st3" points="1300.49,-515.99 1242.09,-482.27 1242.09,-414.83 1183.68,-381.1 1183.68,-515.99 
							1300.49,-583.43 						"/>
						<polygon class="st3" points="1242.09,-617.15 1125.33,-549.68 1183.68,-515.99 1300.49,-583.43 						"/>
						<polygon class="st3" points="1125.27,-414.83 1183.68,-381.1 1183.68,-515.99 1125.33,-549.68 						"/>
					</g>
				</g>
				<g>
					<g>
						<polygon class="st3" points="1183.79,-111.32 1242.2,-77.6 1300.61,-111.32 1359.01,-77.6 1242.2,-10.16 1125.39,-77.6 						
							"/>
						<polygon class="st3" points="1125.39,-10.16 1242.2,57.22 1242.2,-10.16 1125.39,-77.6 						"/>
						<polygon class="st3" points="1359.01,-10.16 1359.01,-77.6 1242.2,-10.16 1242.2,57.22 						"/>
					</g>
					<g>
						<polygon class="st3" points="1125.44,192.08 1125.44,124.63 1067.03,90.91 1067.03,23.47 1183.85,90.91 1183.85,225.8 						
							"/>
						<polygon class="st3" points="1242.25,192.08 1242.2,57.22 1183.85,90.91 1183.85,225.8 						"/>
						<polygon class="st3" points="1125.44,-10.25 1067.03,23.47 1183.85,90.91 1242.2,57.22 						"/>
					</g>
					<g>
						<polygon class="st3" points="1417.36,90.91 1358.96,124.63 1358.96,192.08 1300.55,225.8 1300.55,90.91 1417.36,23.47 						
							"/>
						<polygon class="st3" points="1358.96,-10.25 1242.2,57.22 1300.55,90.91 1417.36,23.47 						"/>
						<polygon class="st3" points="1242.14,192.08 1300.55,225.8 1300.55,90.91 1242.2,57.22 						"/>
					</g>
				</g>
				<g>
					<g>
						<polygon class="st3" points="1125.41,-414.71 1183.82,-380.99 1242.23,-414.71 1300.63,-380.99 1183.82,-313.55 
							1067.01,-380.99 						"/>
						<polygon class="st3" points="1067.01,-313.55 1183.82,-246.17 1183.82,-313.55 1067.01,-380.99 						"/>
						<polygon class="st3" points="1300.63,-313.55 1300.63,-380.99 1183.82,-313.55 1183.82,-246.17 						"/>
					</g>
					<g>
						<polygon class="st3" points="1067.06,-111.32 1067.06,-178.76 1008.65,-212.48 1008.65,-279.92 1125.47,-212.48 
							1125.47,-77.6 						"/>
						<polygon class="st3" points="1183.87,-111.32 1183.82,-246.17 1125.47,-212.48 1125.47,-77.6 						"/>
						<polygon class="st3" points="1067.06,-313.65 1008.65,-279.92 1125.47,-212.48 1183.82,-246.17 						"/>
					</g>
					<g>
						<polygon class="st3" points="1358.98,-212.48 1300.58,-178.76 1300.58,-111.32 1242.17,-77.6 1242.17,-212.48 
							1358.98,-279.92 						"/>
						<polygon class="st3" points="1300.58,-313.65 1183.82,-246.17 1242.17,-212.48 1358.98,-279.92 						"/>
						<polygon class="st3" points="1183.76,-111.32 1242.17,-77.6 1242.17,-212.48 1183.82,-246.17 						"/>
					</g>
				</g>
				<g>
					<g>
						<polygon class="st3" points="1242.17,191.96 1300.58,225.69 1358.98,191.96 1417.39,225.69 1300.58,293.13 1183.76,225.69 
													"/>
						<polygon class="st3" points="1183.76,293.13 1300.58,360.51 1300.58,293.13 1183.76,225.69 						"/>
						<polygon class="st3" points="1417.39,293.13 1417.39,225.69 1300.58,293.13 1300.58,360.51 						"/>
					</g>
					<g>
						<polygon class="st3" points="1183.82,495.36 1183.82,427.92 1125.41,394.2 1125.41,326.75 1242.23,394.2 1242.23,529.08 
													"/>
						<polygon class="st3" points="1300.63,495.36 1300.58,360.51 1242.23,394.2 1242.23,529.08 						"/>
						<polygon class="st3" points="1183.82,293.03 1125.41,326.75 1242.23,394.2 1300.58,360.51 						"/>
					</g>
					<g>
						<polygon class="st3" points="1475.74,394.2 1417.34,427.92 1417.34,495.36 1358.93,529.08 1358.93,394.2 1475.74,326.75 
													"/>
						<polygon class="st3" points="1417.34,293.03 1300.58,360.51 1358.93,394.2 1475.74,326.75 						"/>
						<polygon class="st3" points="1300.52,495.36 1358.93,529.08 1358.93,394.2 1300.58,360.51 						"/>
					</g>
				</g>
				<g>
					<g>
						<polygon class="st3" points="1359.07,-617.22 1417.47,-583.5 1475.88,-617.22 1534.29,-583.5 1417.47,-516.06 1300.66,-583.5 
													"/>
						<polygon class="st3" points="1300.66,-516.06 1417.47,-448.68 1417.47,-516.06 1300.66,-583.5 						"/>
						<polygon class="st3" points="1534.29,-516.06 1534.29,-583.5 1417.47,-516.06 1417.47,-448.68 						"/>
					</g>
					<g>
						<polygon class="st3" points="1300.72,-313.83 1300.72,-381.27 1242.31,-414.99 1242.31,-482.43 1359.12,-414.99 
							1359.12,-280.11 						"/>
						<polygon class="st3" points="1417.53,-313.83 1417.47,-448.68 1359.12,-414.99 1359.12,-280.11 						"/>
						<polygon class="st3" points="1300.72,-516.16 1242.31,-482.43 1359.12,-414.99 1417.47,-448.68 						"/>
					</g>
					<g>
						<polygon class="st3" points="1592.64,-414.99 1534.23,-381.27 1534.23,-313.83 1475.83,-280.11 1475.83,-414.99 
							1592.64,-482.43 						"/>
						<polygon class="st3" points="1534.23,-516.16 1417.47,-448.68 1475.83,-414.99 1592.64,-482.43 						"/>
						<polygon class="st3" points="1417.42,-313.83 1475.83,-280.11 1475.83,-414.99 1417.47,-448.68 						"/>
					</g>
				</g>
				<g>
					<g>
						<polygon class="st3" points="1300.66,495.47 1359.07,529.19 1417.47,495.47 1475.88,529.19 1359.07,596.63 1242.25,529.19 
													"/>
						<polygon class="st3" points="1242.25,596.63 1359.07,664.01 1359.07,596.63 1242.25,529.19 						"/>
						<polygon class="st3" points="1475.88,596.63 1475.88,529.19 1359.07,596.63 1359.07,664.01 						"/>
					</g>
					<g>
						<polygon class="st3" points="1242.31,798.86 1242.31,731.42 1183.9,697.7 1183.9,630.26 1300.72,697.7 1300.72,832.59 						
							"/>
						<polygon class="st3" points="1359.12,798.86 1359.07,664.01 1300.72,697.7 1300.72,832.59 						"/>
						<polygon class="st3" points="1242.31,596.54 1183.9,630.26 1300.72,697.7 1359.07,664.01 						"/>
					</g>
					<g>
						<polygon class="st3" points="1534.23,697.7 1475.83,731.42 1475.83,798.86 1417.42,832.59 1417.42,697.7 1534.23,630.26 
													"/>
						<polygon class="st3" points="1475.83,596.54 1359.07,664.01 1417.42,697.7 1534.23,630.26 						"/>
						<polygon class="st3" points="1359.01,798.86 1417.42,832.59 1417.42,697.7 1359.07,664.01 						"/>
					</g>
				</g>
				<g>
					<g>
						<polygon class="st3" points="-334.4,-920.47 -275.99,-886.75 -217.58,-920.47 -159.18,-886.75 -275.99,-819.31 
							-392.8,-886.75 						"/>
						<polygon class="st3" points="-392.8,-819.31 -275.99,-751.93 -275.99,-819.31 -392.8,-886.75 						"/>
						<polygon class="st3" points="-159.18,-819.31 -159.18,-886.75 -275.99,-819.31 -275.99,-751.93 						"/>
					</g>
					<g>
						<polygon class="st3" points="-392.75,-617.08 -392.75,-684.52 -451.15,-718.24 -451.15,-785.69 -334.34,-718.24 
							-334.34,-583.36 						"/>
						<polygon class="st3" points="-275.93,-617.08 -275.99,-751.93 -334.34,-718.24 -334.34,-583.36 						"/>
						<polygon class="st3" points="-392.75,-819.41 -451.15,-785.69 -334.34,-718.24 -275.99,-751.93 						"/>
					</g>
					<g>
						<polygon class="st3" points="-100.82,-718.24 -159.23,-684.52 -159.23,-617.08 -217.64,-583.36 -217.64,-718.24 
							-100.82,-785.69 						"/>
						<polygon class="st3" points="-159.23,-819.41 -275.99,-751.93 -217.64,-718.24 -100.82,-785.69 						"/>
						<polygon class="st3" points="-276.04,-617.08 -217.64,-583.36 -217.64,-718.24 -275.99,-751.93 						"/>
					</g>
				</g>
				<g>
					<g>
						<polygon class="st3" points="-567.91,-718.15 -509.51,-684.43 -451.1,-718.15 -392.69,-684.43 -509.51,-616.98 
							-626.32,-684.43 						"/>
						<polygon class="st3" points="-626.32,-616.98 -509.51,-549.61 -509.51,-616.98 -626.32,-684.43 						"/>
						<polygon class="st3" points="-392.69,-616.98 -392.69,-684.43 -509.51,-616.98 -509.51,-549.61 						"/>
					</g>
					<g>
						<polygon class="st3" points="-626.26,-414.75 -626.26,-482.2 -684.67,-515.92 -684.67,-583.36 -567.86,-515.92 
							-567.86,-381.03 						"/>
						<polygon class="st3" points="-509.45,-414.75 -509.51,-549.61 -567.86,-515.92 -567.86,-381.03 						"/>
						<polygon class="st3" points="-626.26,-617.08 -684.67,-583.36 -567.86,-515.92 -509.51,-549.61 						"/>
					</g>
					<g>
						<polygon class="st3" points="-334.34,-515.92 -392.75,-482.2 -392.75,-414.75 -451.15,-381.03 -451.15,-515.92 
							-334.34,-583.36 						"/>
						<polygon class="st3" points="-392.75,-617.08 -509.51,-549.61 -451.15,-515.92 -334.34,-583.36 						"/>
						<polygon class="st3" points="-509.56,-414.75 -451.15,-381.03 -451.15,-515.92 -509.51,-549.61 						"/>
					</g>
				</g>
				<g>
					<g>
						<polygon class="st3" points="-217.67,1102.22 -159.26,1135.94 -100.85,1102.22 -42.45,1135.94 -159.26,1203.38 
							-276.07,1135.94 						"/>
						<polygon class="st3" points="-276.07,1203.38 -159.26,1270.76 -159.26,1203.38 -276.07,1135.94 						"/>
						<polygon class="st3" points="-42.45,1203.38 -42.45,1135.94 -159.26,1203.38 -159.26,1270.76 						"/>
					</g>
					<g>
						<polygon class="st3" points="-276.02,1405.61 -276.02,1338.17 -334.42,1304.45 -334.42,1237.01 -217.61,1304.45 
							-217.61,1439.33 						"/>
						<polygon class="st3" points="-159.2,1405.61 -159.26,1270.76 -217.61,1304.45 -217.61,1439.33 						"/>
						<polygon class="st3" points="-276.02,1203.29 -334.42,1237.01 -217.61,1304.45 -159.26,1270.76 						"/>
					</g>
					<g>
						<polygon class="st3" points="15.91,1304.45 -42.5,1338.17 -42.5,1405.61 -100.91,1439.33 -100.91,1304.45 15.91,1237.01 
													"/>
						<polygon class="st3" points="-42.5,1203.29 -159.26,1270.76 -100.91,1304.45 15.91,1237.01 						"/>
						<polygon class="st3" points="-159.31,1405.61 -100.91,1439.33 -100.91,1304.45 -159.26,1270.76 						"/>
					</g>
				</g>
				<g>
					<g>
						<polygon class="st3" points="74.26,1203.38 132.66,1237.1 191.07,1203.38 249.48,1237.1 132.66,1304.55 15.85,1237.1 						
							"/>
						<polygon class="st3" points="15.85,1304.55 132.66,1371.92 132.66,1304.55 15.85,1237.1 						"/>
						<polygon class="st3" points="249.48,1304.55 249.48,1237.1 132.66,1304.55 132.66,1371.92 						"/>
					</g>
					<g>
						<polygon class="st3" points="15.91,1506.78 15.91,1439.33 -42.5,1405.61 -42.5,1338.17 74.31,1405.61 74.31,1540.5 						"/>
						<polygon class="st3" points="132.72,1506.78 132.66,1371.92 74.31,1405.61 74.31,1540.5 						"/>
						<polygon class="st3" points="15.91,1304.45 -42.5,1338.17 74.31,1405.61 132.66,1371.92 						"/>
					</g>
					<g>
						<polygon class="st3" points="307.83,1405.61 249.42,1439.33 249.42,1506.78 191.02,1540.5 191.02,1405.61 307.83,1338.17 
													"/>
						<polygon class="st3" points="249.42,1304.45 132.66,1371.92 191.02,1405.61 307.83,1338.17 						"/>
						<polygon class="st3" points="132.61,1506.78 191.02,1540.5 191.02,1405.61 132.66,1371.92 						"/>
					</g>
				</g>
			</g>
		</g>
	</g>
	<g style="clip-path:url(#SVGID_00000065783716024777614910000012708203519167444881_);">
		<g>
			<rect x="440.55" y="569.29" class="st4" width="15.11" height="74.12"/>
			<polygon class="st4" points="455.67,569.29 440.55,569.29 469.83,643.41 484.94,643.41 			"/>
			<rect x="469.83" y="569.29" class="st4" width="15.11" height="74.12"/>
		</g>
		<path class="st4" d="M249.16,614.32c3.63,0.01,6.58-2.92,6.59-6.55c0-0.78,0-1.62,0-2.54c0.01-6.07-0.01-20.73-0.02-29.34
			c-0.01-3.62-2.94-6.56-6.56-6.56c-0.85,0-1.8,0-2.84-0.01c-10.23-0.04-34.91-0.02-34.91-0.02s-0.01,37.81,0,54.59
			c0,5.46-0.02,19.54-0.02,19.54l15.11,0.01c0,0-0.07-28,0-29.08c0.52,0.3,14.16,29.05,14.16,29.05s15.61-0.01,19.03-0.01
			c-5.8-10.07-11.07-19.22-16.72-29.04C243.81,614.32,246.48,614.31,249.16,614.32z M240.66,598.55H226.5v-13.7h14.16V598.55z"/>
		<path class="st4" d="M326.7,569.28c-5.99-0.01-22.08,0-31.21,0.01c-3.63,0-6.56,2.94-6.56,6.57l0,16.08
			c0,1.71,0.67,3.36,1.86,4.59c5.02,5.15,27.41,28.13,27.41,28.13l0,3.2h-14.16V621h-15.11c0,0-0.21,10.79-0.05,14.76
			c0.19,4.77,3.26,7.58,8.12,7.63c4.67,0.04,9.33,0.01,14,0.01c2.73,0,10.16,0,15.69,0.01c3.63,0,6.57-2.94,6.57-6.57l0-16.08
			c0-1.74-0.69-3.4-1.91-4.63c-4.49-4.52-15.74-15.84-21.25-21.39c-1.75-1.76-6.06-6.21-6.06-6.21l0-3.67h14.16v6.85h15.06v-15.85
			C333.26,572.22,330.33,569.28,326.7,569.28z"/>
		<polygon class="st4" points="622.12,643.46 606.99,643.46 587.95,569.29 603.08,569.29 		"/>
		<polygon class="st4" points="622.12,643.46 606.99,643.46 625.04,569.29 640.17,569.29 		"/>
		<path class="st4" d="M553.9,569.28c-5.99-0.01-22.08,0-31.21,0.01c-3.63,0-6.56,2.94-6.56,6.57l0,16.08
			c0,1.71,0.67,3.36,1.86,4.59c5.02,5.15,27.41,28.13,27.41,28.13l0,3.2h-14.16V621h-15.11c0,0-0.21,10.79-0.05,14.76
			c0.19,4.77,3.26,7.58,8.12,7.63c4.67,0.04,9.33,0.01,14,0.01c2.73,0,10.16,0,15.69,0.01c3.63,0,6.57-2.94,6.57-6.57l0-16.08
			c0-1.74-0.69-3.4-1.91-4.63c-4.49-4.52-15.74-15.84-21.25-21.39c-1.75-1.76-6.06-6.21-6.06-6.21l0-3.67h14.16v6.85h15.06v-15.85
			C560.46,572.22,557.52,569.28,553.9,569.28z"/>
		<path class="st4" d="M364.59,606.5c0,10.83-0.05,36.9-0.05,36.9h15.11l0.02-29.26h22.62c3.63,0,6.57-2.94,6.57-6.57v-31.72
			c0-3.63-2.94-6.57-6.57-6.57h-37.76C364.54,569.28,364.59,595.38,364.59,606.5z M379.66,584.84h14.16v13.7h-14.16V584.84z"/>
	</g>
	
		<linearGradient id="SVGID_00000088111454752529425990000015883091892745333156_" gradientUnits="userSpaceOnUse" x1="314.8242" y1="49.673" x2="616.5974" y2="531.6312">
		<stop  offset="0.1034" style="stop-color:#F2CBFD"/>
		<stop  offset="0.1104" style="stop-color:#EDC7FC;stop-opacity:0.9932"/>
		<stop  offset="0.1698" style="stop-color:#C6A9F8;stop-opacity:0.9355"/>
		<stop  offset="0.2314" style="stop-color:#A68FF4;stop-opacity:0.8756"/>
		<stop  offset="0.2949" style="stop-color:#8D7CF1;stop-opacity:0.8139"/>
		<stop  offset="0.3611" style="stop-color:#7C6EEF;stop-opacity:0.7495"/>
		<stop  offset="0.4319" style="stop-color:#7166ED;stop-opacity:0.6807"/>
		<stop  offset="0.5149" style="stop-color:#6E63ED;stop-opacity:0.6"/>
		<stop  offset="0.5787" style="stop-color:#587DE5;stop-opacity:0.5063"/>
		<stop  offset="0.6657" style="stop-color:#3F99DC;stop-opacity:0.3786"/>
		<stop  offset="0.7527" style="stop-color:#2EAED5;stop-opacity:0.2508"/>
		<stop  offset="0.8389" style="stop-color:#24BAD1;stop-opacity:0.1242"/>
		<stop  offset="0.9234" style="stop-color:#20BED0;stop-opacity:0"/>
	</linearGradient>
	
		<polygon style="opacity:0.15;clip-path:url(#SVGID_00000065783716024777614910000012708203519167444881_);fill:url(#SVGID_00000088111454752529425990000015883091892745333156_);" points="
		79.89,226.94 429.57,425.15 771.92,227.22 425.99,27.12 	"/>
	
		<linearGradient id="SVGID_00000165221052152968516400000002522977244552921784_" gradientUnits="userSpaceOnUse" x1="597.3486" y1="711.0884" x2="601.7394" y2="197.3699">
		<stop  offset="0.1034" style="stop-color:#F2CBFD"/>
		<stop  offset="0.1104" style="stop-color:#EDC7FC"/>
		<stop  offset="0.1698" style="stop-color:#C6A9F8"/>
		<stop  offset="0.2314" style="stop-color:#A68FF4"/>
		<stop  offset="0.2949" style="stop-color:#8D7CF1"/>
		<stop  offset="0.3611" style="stop-color:#7C6EEF"/>
		<stop  offset="0.4319" style="stop-color:#7166ED"/>
		<stop  offset="0.5149" style="stop-color:#6E63ED"/>
		<stop  offset="0.5787" style="stop-color:#587DE5"/>
		<stop  offset="0.6657" style="stop-color:#3F99DC"/>
		<stop  offset="0.7527" style="stop-color:#2EAED5"/>
		<stop  offset="0.8389" style="stop-color:#24BAD1"/>
		<stop  offset="0.9234" style="stop-color:#20BED0"/>
	</linearGradient>
	
		<polygon style="opacity:0.15;clip-path:url(#SVGID_00000065783716024777614910000012708203519167444881_);fill:url(#SVGID_00000165221052152968516400000002522977244552921784_);" points="
		772.16,227.01 425.66,430.74 425.91,826.19 772.16,626.65 	"/>
	<g style="clip-path:url(#SVGID_00000065783716024777614910000012708203519167444881_);">
		<g>
			
				<radialGradient id="SVGID_00000035504972743736033190000011296932146906898839_" cx="374.5868" cy="453.8601" r="468.6819" gradientTransform="matrix(0.9264 0.3766 -0.1706 0.4195 104.9912 122.3867)" gradientUnits="userSpaceOnUse">
				<stop  offset="8.620690e-03" style="stop-color:#F5D0FD"/>
				<stop  offset="0.2641" style="stop-color:#F5D0FD"/>
				<stop  offset="0.3681" style="stop-color:#F5D0FD;stop-opacity:0.8587"/>
				<stop  offset="1" style="stop-color:#F5D0FD;stop-opacity:0"/>
			</radialGradient>
			<polygon style="opacity:0.2;fill:url(#SVGID_00000035504972743736033190000011296932146906898839_);" points="426.34,527.06 
				426.34,730.83 -8.37,472.21 32.22,199.01 260.69,336.15 261.69,431.84 			"/>
			
				<radialGradient id="SVGID_00000123413530086401366670000011724510233531206042_" cx="-11886.3848" cy="453.8601" r="468.6819" gradientTransform="matrix(-0.9264 0.3766 0.1706 0.4195 -10611.6396 4740.2578)" gradientUnits="userSpaceOnUse">
				<stop  offset="0" style="stop-color:#FFFFFF"/>
				<stop  offset="0.07" style="stop-color:#FFFFFF;stop-opacity:0.93"/>
				<stop  offset="1" style="stop-color:#FFFFFF;stop-opacity:0"/>
			</radialGradient>
			<polygon style="opacity:0.2;fill:url(#SVGID_00000123413530086401366670000011724510233531206042_);" points="425.12,527.06 
				425.12,730.83 859.83,472.21 819.24,199.01 590.78,336.15 589.77,431.84 			"/>
			
				<radialGradient id="SVGID_00000097491187087685016790000014760307059745059005_" cx="411.1315" cy="407.2176" r="502.9735" gradientUnits="userSpaceOnUse">
				<stop  offset="0" style="stop-color:#6E63ED"/>
				<stop  offset="0.0282" style="stop-color:#6A6CEE;stop-opacity:0.9718"/>
				<stop  offset="0.1713" style="stop-color:#5992F3;stop-opacity:0.8287"/>
				<stop  offset="0.3198" style="stop-color:#4CB3F8;stop-opacity:0.6802"/>
				<stop  offset="0.4727" style="stop-color:#41CBFB;stop-opacity:0.5273"/>
				<stop  offset="0.632" style="stop-color:#39DDFD;stop-opacity:0.368"/>
				<stop  offset="0.8018" style="stop-color:#34E8FF;stop-opacity:0.1982"/>
				<stop  offset="1" style="stop-color:#33EBFF;stop-opacity:0"/>
			</radialGradient>
			<polygon style="opacity:0.2;fill:url(#SVGID_00000097491187087685016790000014760307059745059005_);" points="425.77,336.72 
				343.29,289.3 260.69,336.15 32.22,199.01 58.19,-103.62 787.16,-132.78 819.24,199.01 590.78,336.15 507.4,289.3 			"/>
		</g>
		<g>
			
				<linearGradient id="SVGID_00000119096573728266476250000018297088772096708542_" gradientUnits="userSpaceOnUse" x1="217.4083" y1="508.7293" x2="541.3027" y2="241.8584">
				<stop  offset="0.1034" style="stop-color:#F2CBFD"/>
				<stop  offset="0.1104" style="stop-color:#EDC7FC"/>
				<stop  offset="0.1698" style="stop-color:#C6A9F8"/>
				<stop  offset="0.2314" style="stop-color:#A68FF4"/>
				<stop  offset="0.2949" style="stop-color:#8D7CF1"/>
				<stop  offset="0.3611" style="stop-color:#7C6EEF"/>
				<stop  offset="0.4319" style="stop-color:#7166ED"/>
				<stop  offset="0.5149" style="stop-color:#6E63ED"/>
				<stop  offset="0.5787" style="stop-color:#587DE5"/>
				<stop  offset="0.6657" style="stop-color:#3F99DC"/>
				<stop  offset="0.7527" style="stop-color:#2EAED5"/>
				<stop  offset="0.8389" style="stop-color:#24BAD1"/>
				<stop  offset="0.9234" style="stop-color:#20BED0"/>
			</linearGradient>
			<polygon style="fill:url(#SVGID_00000119096573728266476250000018297088772096708542_);" points="344.16,289.94 425.77,337.05 
				507.38,289.94 588.98,337.05 425.77,431.28 262.56,337.05 			"/>
			<polygon class="st11" points="262.56,431.28 425.77,525.42 425.77,431.28 262.56,337.05 			"/>
			<polygon class="st4" points="588.98,431.28 588.98,337.05 425.77,431.28 425.77,525.42 			"/>
		</g>
	</g>
</g>
</svg>
