<?xml version="1.0" encoding="utf-8"?>
<!-- Generator: Adobe Illustrator 22.1.0, SVG Export Plug-In . SVG Version: 6.00 Build 0)  -->
<svg version="1.1" id="Ebene_1" xmlns="http://www.w3.org/2000/svg" xmlns:xlink="http://www.w3.org/1999/xlink" x="0px" y="0px"
	 viewBox="0 0 251.2 100" style="enable-background:new 0 0 251.2 100;" xml:space="preserve">
<style type="text/css">
	.st0{fill:url(#SVGID_1_);}
	.st1{fill:#FFFFFF;}
</style>
<g>
	
		<linearGradient id="SVGID_1_" gradientUnits="userSpaceOnUse" x1="21.163" y1="29.8618" x2="21.163" y2="72.1878" gradientTransform="matrix(1 0 0 -1 0 101.0866)">
		<stop  offset="0" style="stop-color:#EA5900"/>
		<stop  offset="2.000000e-02" style="stop-color:#EB5B00"/>
		<stop  offset="0.23" style="stop-color:#F47300"/>
		<stop  offset="0.45" style="stop-color:#FA8400"/>
		<stop  offset="0.7" style="stop-color:#FE8E00"/>
		<stop  offset="1" style="stop-color:#FF9100"/>
	</linearGradient>
	<path class="st0" d="M32.2,28.9c6.1,0,10.1,4,10.1,10.1v22.1c0,6.2-4,10.1-10.1,10.1H10.1C4,71.2,0,67.3,0,61.1V39
		c0-6.1,4-10.1,10.1-10.1H32.2z"/>
	<path class="st1" d="M22,33.5c4.7,0,6.7,1,6.7,6.3v4h-3.2v-4.2c0-3-1.5-3.3-3.4-3.3h-1.6c-1.9,0-3.4,0.3-3.4,3.3v21
		c0,3.1,1.4,3.2,3.4,3.2H22c2,0,3.4-0.1,3.4-3.2v-8.2H21v-2.7h7.6v10.6c0,5.3-2,6.3-6.7,6.3h-1.6c-4.7,0-6.7-1-6.7-6.3V39.8
		c0-5.3,2-6.3,6.7-6.3L22,33.5z"/>
	<path id="Fill-19_1_" d="M73.7,51.8v13.8c0,3-2.4,5.5-5.4,5.6h-6.1c-3-0.1-5.4-2.6-5.4-5.6V34.5c0-3,2.4-5.5,5.4-5.6h5.7
		c3,0.1,5.3,2.6,5.3,5.6v7.8h-2.4v-7.8c0-1.8-1.2-3.8-3-3.8h-5.6c-1.8,0-3,2-3,3.8v31.2c0,1.8,1.2,3.8,3,3.8h6c1.8,0,3-2,3-3.8V53.7
		h-6.5v-1.9H73.7"/>
	<path id="Fill-20_1_" d="M94.3,55.5l-4.4-24.1l-4.4,24.1H94.3z M94.6,57.3h-9.4l-2.5,13.8h-2.2l7.8-42h3.5l7.8,42h-2.4L94.6,57.3
		L94.6,57.3z"/>
	<path id="Fill-21_1_" d="M123,57.3v8.4c0,3-2.4,5.5-5.4,5.6h-6.2c-3-0.1-5.3-2.6-5.3-5.6v-8.4h2.4v8.4c0,1.8,1.2,3.8,3,3.8h6
		c1.8,0,3-2,3-3.8v-8.4c0-2.3-1-3.1-3-4.5c-2.2-1.7-4.8-3.6-7.3-5.2c-2.7-1.8-3.6-3.4-3.6-5.8v-7.2c0-3,2.4-5.5,5.4-5.6h5
		c3,0.1,5.4,2.6,5.4,5.6v8.4H120v-8.4c0-1.8-1.2-3.8-3-3.8h-4.9c-1.8,0-3,2-3,3.8v6.6c0,2.9,1.1,3.6,3,4.9c1.7,1.2,5.7,4.1,7.7,5.4
		C123,53.5,123,55.7,123,57.3"/>
	<polyline id="Fill-22_1_" points="146.6,30.9 138.8,30.9 138.8,71.1 136.4,71.1 136.4,30.9 128.5,30.9 128.5,29.1 146.6,29.1 
		146.6,30.9 	"/>
	<path id="Fill-23_1_" d="M155.6,48.3h8.4c1.8,0,3-1.8,3-3.6V34.5c0-1.8-1.2-3.6-3-3.6h-8.4V48.3z M162.4,50.1h-6.8v21h-2.4v-42H164
		c3,0,5.4,2.4,5.4,5.4v10.2c0,2.6-1.8,4.8-4.3,5.3l6.4,21h-2.6C168.8,71.1,162.4,50.1,162.4,50.1z"/>
	<path id="Fill-24_1_" d="M192.1,65.6V34.5c0-1.8-1.3-3.8-3-3.8h-6c-1.8,0-3,2-3,3.8v31.2c0,1.8,1.2,3.8,3,3.8h6
		C190.9,69.4,192.1,67.5,192.1,65.6z M194.5,34.5v31.2c0,3-2.4,5.5-5.4,5.6h-6c-3-0.1-5.4-2.6-5.4-5.6V34.5c0-3,2.4-5.5,5.4-5.6h6
		C192,29,194.4,31.5,194.5,34.5L194.5,34.5z"/>
	<polyline id="Fill-25_1_" points="205,30.9 205,47.7 215.8,47.7 215.8,49.5 205,49.5 205,71.1 202.6,71.1 202.6,29.1 217,29.1 
		217,30.9 205,30.9 	"/>
	<polygon id="Fill-26_1_" points="224,71.1 226.4,71.1 226.4,29.1 224,29.1 	"/>
	<polyline id="Fill-27_1_" points="248.8,71.1 242.5,51 236.2,71.1 233.8,71.1 241,48.3 241,48.3 235,29.1 237.4,29.1 242.5,45.3 
		247.6,29.1 250,29.1 243.9,48.3 244,48.3 251.2,71.1 248.8,71.1 	"/>
</g>
</svg>
