<?xml version="1.0" standalone="no"?>
<!DOCTYPE svg PUBLIC "-//W3C//DTD SVG 20010904//EN"
 "http://www.w3.org/TR/2001/REC-SVG-20010904/DTD/svg10.dtd">
<svg version="1.0" xmlns="http://www.w3.org/2000/svg"
 width="200.000000pt" height="200.000000pt" viewBox="0 0 200.000000 200.000000"
 preserveAspectRatio="xMidYMid meet">
<metadata>
Created by potrace 1.11, written by Peter Selinger 2001-2013
</metadata>
<g transform="translate(0.000000,200.000000) scale(0.100000,-0.100000)"
fill="#000000" stroke="none">
<path d="M957 1492 c-9 -2 -14 -8 -10 -14 4 -8 0 -9 -12 -4 -14 5 -37 -13
-101 -76 -45 -45 -80 -87 -78 -93 3 -5 -2 -1 -12 10 -14 17 -16 17 -11 3 4
-10 2 -18 -3 -18 -6 0 -10 5 -10 12 0 6 -3 8 -6 5 -4 -4 -1 -14 7 -23 12 -15
12 -16 -6 -11 -26 8 -74 -26 -55 -38 9 -5 11 -4 6 3 -4 7 -2 12 3 12 14 0 14
-17 1 -25 -6 -4 -18 -1 -27 7 -9 7 -14 8 -10 2 4 -7 0 -15 -9 -18 -9 -4 -14
-9 -11 -13 4 -3 13 0 21 6 9 8 16 8 20 2 4 -5 -3 -12 -14 -16 -18 -6 -24 -17
-21 -37 0 -4 -6 -5 -14 -2 -10 4 -15 0 -15 -11 0 -9 -4 -13 -10 -10 -5 3 -10
1 -10 -5 0 -6 -4 -8 -10 -5 -5 3 -10 -3 -10 -14 0 -12 -4 -21 -10 -21 -5 0
-10 9 -10 19 0 24 -29 36 -36 16 -9 -23 3 -45 21 -39 22 9 18 -9 -5 -24 -11
-7 -20 -18 -19 -25 0 -9 2 -9 6 1 2 6 10 9 16 5 21 -13 39 -12 33 2 -3 9 0 12
9 8 8 -3 12 -9 9 -14 -3 -5 -1 -9 5 -9 5 0 13 5 16 10 4 6 12 7 18 3 19 -12
376 -10 369 2 -3 6 1 5 9 -2 11 -9 92 -12 302 -12 158 0 287 3 287 6 0 21 -51
76 -87 95 -33 18 -39 24 -26 29 21 7 85 -6 131 -28 18 -9 49 -35 69 -59 19
-24 41 -44 49 -44 7 0 26 -11 41 -25 l28 -24 -27 -1 c-27 0 -68 -30 -68 -50 0
-21 -67 -84 -107 -101 -57 -24 -136 -34 -159 -20 -19 10 -19 10 0 11 49 1 163
92 146 117 -7 11 -770 10 -770 0 0 -5 -5 -5 -11 -1 -15 9 -169 11 -169 2 0 -4
-11 -3 -24 2 -13 5 -26 7 -28 5 -2 -3 -18 -5 -36 -7 -18 -1 -32 -6 -32 -11 0
-4 -6 -5 -12 0 -7 4 -23 8 -35 9 -15 0 -19 -4 -15 -14 4 -10 1 -13 -7 -8 -10
6 -9 3 0 -13 14 -21 32 -10 23 14 -3 6 2 12 11 12 8 0 15 -4 15 -9 0 -5 10 -6
23 -3 17 4 27 -1 42 -24 10 -16 24 -27 30 -24 5 3 4 0 -2 -8 -7 -7 -13 -18
-13 -23 0 -6 4 -5 9 3 7 12 13 12 24 3 7 -7 18 -8 22 -4 5 4 5 2 2 -4 -4 -7 0
-17 8 -24 8 -7 12 -17 8 -24 -4 -6 0 -5 9 2 9 7 19 9 21 5 7 -12 -4 -27 -23
-31 -8 -2 -16 -7 -18 -12 -2 -5 -9 -8 -15 -6 -7 1 -9 1 -4 -1 4 -3 4 -9 1 -15
-3 -5 3 -4 15 4 12 7 21 15 21 19 0 11 35 6 48 -8 8 -7 18 -10 24 -7 7 4 7 -2
3 -17 -7 -20 -6 -22 6 -12 12 10 15 8 16 -6 1 -12 -5 -18 -15 -17 -9 0 -16 -5
-14 -12 2 -9 -5 -12 -20 -8 -13 3 -17 3 -10 0 6 -3 9 -10 6 -16 -4 -6 3 -5 15
2 12 6 19 16 15 22 -4 6 -1 9 7 6 8 -3 22 -1 32 4 9 5 16 5 15 1 -4 -11 105
-123 120 -123 7 0 12 -7 12 -16 0 -8 4 -13 9 -10 5 3 11 -1 15 -9 3 -9 12 -12
22 -8 11 4 15 2 11 -4 -7 -11 43 -25 65 -19 7 3 26 7 41 11 34 7 179 144 173
162 -11 27 33 -4 109 -77 83 -80 130 -105 182 -96 15 2 34 5 42 5 25 2 401
382 422 426 22 48 24 84 5 128 -18 44 -388 409 -429 424 -81 30 -134 9 -231
-92 -41 -41 -77 -75 -81 -75 -4 0 -16 11 -27 25 -11 14 -27 25 -35 25 -9 0
-14 3 -10 6 8 8 -34 54 -50 54 -8 0 -11 5 -8 10 3 6 0 10 -8 10 -8 0 -18 7
-21 16 -3 8 -10 12 -16 9 -5 -3 -10 -2 -10 3 0 5 -9 12 -20 15 -13 3 -18 1
-13 -6 5 -9 3 -9 -8 -1 -14 11 -30 13 -62 6z m49 -38 c1 -9 0 -13 -4 -10 -3 4
-7 14 -8 22 -1 9 0 13 4 10 3 -4 7 -14 8 -22z m64 2 c0 -2 -6 -9 -14 -15 -11
-9 -16 -9 -22 0 -4 7 -3 9 4 5 6 -3 13 -2 17 4 6 10 15 14 15 6z m-149 -43
c13 -16 12 -17 -3 -4 -10 7 -18 15 -18 17 0 8 8 3 21 -13z m173 9 c2 -4 -4 -8
-14 -8 -10 0 -16 4 -14 8 3 4 9 8 14 8 5 0 11 -4 14 -8z m48 -17 c2 3 5 -2 5
-10 0 -19 0 -19 -23 7 -12 14 -13 18 -3 10 9 -6 18 -10 21 -7z m-252 -10 c0
-2 -9 -3 -19 -2 -11 0 -18 5 -15 9 4 6 34 0 34 -7z m134 3 c-3 -4 -11 -5 -19
-1 -21 7 -19 12 4 10 11 0 18 -5 15 -9z m66 -22 c-7 -7 -13 -7 -20 0 -6 6 -3
10 10 10 13 0 16 -4 10 -10z m-95 -16 c-3 -5 -12 -10 -18 -10 -7 0 -6 4 3 10
19 12 23 12 15 0z m52 -10 c-2 -11 -6 -22 -9 -26 -4 -3 -5 2 -3 13 2 10 4 21
4 26 1 4 3 7 6 7 3 0 4 -9 2 -20z m100 5 c0 -8 -4 -12 -9 -9 -5 3 -6 10 -3 15
9 13 12 11 12 -6z m64 -12 c13 -16 12 -17 -3 -4 -10 7 -18 15 -18 17 0 8 8 3
21 -13z m-361 -23 c0 -5 -2 -10 -4 -10 -3 0 -8 5 -11 10 -3 6 -1 10 4 10 6 0
11 -4 11 -10z m73 -5 c4 -8 3 -16 -1 -19 -4 -3 -9 4 -9 15 -2 23 3 25 10 4z
m98 -2 c13 -16 12 -17 -3 -4 -10 7 -18 15 -18 17 0 8 8 3 21 -13z m110 4 c-6
-8 -7 -18 -3 -22 4 -5 1 -5 -6 -1 -10 6 -10 11 -1 22 6 8 14 14 16 14 3 0 0
-6 -6 -13z m-156 -16 c-9 -8 -36 -10 -30 -2 2 4 11 8 20 8 8 0 13 -3 10 -6z
m125 6 c0 -2 -10 -12 -22 -23 l-23 -19 19 23 c18 21 26 27 26 19z m-235 -35
c-3 -3 -11 0 -18 7 -9 10 -8 11 6 5 10 -3 15 -9 12 -12z m156 -5 c-10 -9 -11
-8 -5 6 3 10 9 15 12 12 3 -3 0 -11 -7 -18z m-316 3 c-3 -5 -11 -10 -16 -10
-6 0 -7 5 -4 10 3 6 11 10 16 10 6 0 7 -4 4 -10z m29 -8 c3 -5 -1 -9 -9 -9 -8
0 -12 4 -9 9 3 4 7 8 9 8 2 0 6 -4 9 -8z m206 4 c0 -2 -8 -10 -17 -17 -16 -13
-17 -12 -4 4 13 16 21 21 21 13z m-150 -10 c0 -2 -8 -10 -17 -17 -16 -13 -17
-12 -4 4 13 16 21 21 21 13z m334 -25 c-2 -3 -12 3 -22 13 -16 17 -16 18 5 5
12 -7 20 -15 17 -18z m-275 16 c-2 -2 -11 -8 -20 -15 -12 -9 -16 -9 -16 1 0 7
9 14 20 14 11 1 18 1 16 0z m131 -42 c12 2 20 1 16 -2 -14 -14 -45 -12 -57 5
-12 15 -12 16 2 5 8 -7 26 -11 39 -8z m65 6 c3 -5 2 -12 -3 -15 -5 -3 -9 1 -9
9 0 17 3 19 12 6z m-295 -10 c0 -6 -4 -12 -8 -15 -5 -3 -9 1 -9 9 0 8 4 15 9
15 4 0 8 -4 8 -9z m80 -1 c0 -5 -5 -10 -11 -10 -5 0 -7 5 -4 10 3 6 8 10 11
10 2 0 4 -4 4 -10z m-140 -4 c0 -2 -8 -10 -17 -17 -16 -13 -17 -12 -4 4 13 16
21 21 21 13z m-45 -15 c3 -5 2 -12 -3 -15 -5 -3 -9 1 -9 9 0 17 3 19 12 6z
m125 -26 c0 -2 -9 -3 -19 -2 -11 0 -18 5 -15 9 4 6 34 0 34 -7z m91 -2 c13
-17 13 -17 -6 -3 -11 8 -22 16 -24 17 -2 2 0 3 6 3 6 0 17 -8 24 -17z m120 0
c13 -17 13 -17 -6 -3 -11 8 -22 16 -24 17 -2 2 0 3 6 3 6 0 17 -8 24 -17z
m-54 -21 c-17 -18 -51 -27 -41 -10 3 5 9 6 14 3 4 -3 13 2 20 10 7 8 15 15 18
15 3 0 -2 -8 -11 -18z m-415 -24 c-9 -9 -12 -7 -12 12 0 19 3 21 12 12 9 -9 9
-15 0 -24z m453 23 c3 -5 2 -12 -3 -15 -5 -3 -9 1 -9 9 0 17 3 19 12 6z m-304
-18 c13 -16 12 -17 -3 -4 -10 7 -18 15 -18 17 0 8 8 3 21 -13z m350 4 c-6 -8
-9 -16 -6 -19 3 -2 -2 -5 -10 -5 -13 0 -13 3 2 19 19 21 31 25 14 5z m-440
-20 c-6 -8 -7 -18 -3 -22 4 -5 1 -5 -6 -1 -10 6 -10 11 -1 22 6 8 14 14 16 14
3 0 0 -6 -6 -13z m153 -3 c3 -8 2 -12 -4 -9 -6 3 -10 10 -10 16 0 14 7 11 14
-7z m92 4 c3 -4 -1 -5 -10 -4 -8 1 -18 5 -22 8 -3 4 1 5 10 4 8 -1 18 -5 22
-8z m55 -15 c13 -16 12 -17 -3 -4 -10 7 -18 15 -18 17 0 8 8 3 21 -13z m-266
-3 c3 -5 1 -10 -4 -10 -6 0 -11 5 -11 10 0 6 2 10 4 10 3 0 8 -4 11 -10z m50
0 c-3 -5 -12 -10 -18 -10 -7 0 -6 4 3 10 19 12 23 12 15 0z m112 -9 c0 -11 -5
-18 -9 -15 -4 3 -5 11 -1 19 7 21 12 19 10 -4z m60 -6 c0 -8 -4 -12 -9 -9 -5
3 -6 10 -3 15 9 13 12 11 12 -6z m120 0 c0 -8 -4 -12 -9 -9 -5 3 -6 10 -3 15
9 13 12 11 12 -6z m-220 -140 c0 -8 -4 -12 -9 -9 -5 3 -6 10 -3 15 9 13 12 11
12 -6z m204 1 c7 4 9 3 5 -4 -9 -15 -43 -11 -43 5 0 9 4 10 13 2 7 -6 19 -7
25 -3z m49 -1 c-14 -17 -30 -20 -30 -4 0 5 4 8 9 4 5 -3 12 -1 16 5 3 5 9 10
12 10 3 0 0 -7 -7 -15z m-370 1 c0 -3 -4 -8 -10 -11 -5 -3 -10 -1 -10 4 0 6 5
11 10 11 6 0 10 -2 10 -4z m180 -2 c0 -8 -19 -13 -24 -6 -3 5 1 9 9 9 8 0 15
-2 15 -3z m-135 -23 c-9 -8 -36 -10 -30 -2 2 4 11 8 20 8 8 0 13 -3 10 -6z
m153 -10 c-7 -9 -13 -18 -15 -20 -1 -2 -1 5 0 16 0 11 7 20 14 20 10 0 10 -4
1 -16z m-103 -3 c5 4 5 1 1 -6 -6 -10 -11 -10 -22 -1 -8 6 -14 14 -14 16 0 3
6 0 13 -6 8 -6 18 -7 22 -3z m157 -3 c2 3 5 -2 5 -10 0 -19 0 -19 -23 7 -12
14 -13 18 -3 10 9 -6 18 -10 21 -7z m182 -11 c3 -8 2 -12 -4 -9 -6 3 -10 10
-10 16 0 14 7 11 14 -7z m-270 -12 c2 -4 -4 -8 -14 -8 -10 0 -16 4 -14 8 3 4
9 8 14 8 5 0 11 -4 14 -8z m-59 -22 c10 -11 16 -20 13 -20 -3 0 -13 9 -23 20
-10 11 -16 20 -13 20 3 0 13 -9 23 -20z m271 0 c0 -12 -4 -16 -9 -11 -5 5 -6
14 -3 20 10 15 12 14 12 -9z m-136 5 c0 -7 -30 -13 -34 -7 -3 4 4 9 15 9 10 1
19 0 19 -2z m211 -12 c13 -16 12 -17 -3 -4 -10 7 -18 15 -18 17 0 8 8 3 21
-13z m-334 -30 c-9 -8 -57 -13 -57 -6 0 5 14 9 31 9 16 1 28 0 26 -3z m138
-11 c-3 -3 -11 0 -18 7 -9 10 -8 11 6 5 10 -3 15 -9 12 -12z m155 15 c0 -2
-10 -12 -22 -23 l-23 -19 19 23 c18 21 26 27 26 19z m34 -9 c-3 -4 -9 -8 -15
-8 -5 0 -9 4 -9 8 0 5 7 9 15 9 8 0 12 -4 9 -9z m71 -16 c-3 -3 3 -15 12 -26
18 -21 18 -21 -5 -2 -12 11 -20 21 -17 24 3 3 -1 12 -8 21 -11 14 -10 14 6 2
9 -8 15 -16 12 -19z m-355 14 c0 -2 -8 -10 -17 -17 -16 -13 -17 -12 -4 4 13
16 21 21 21 13z m194 -15 c3 -5 -2 -15 -12 -22 -15 -12 -16 -12 -5 2 7 9 10
19 6 22 -3 4 -4 7 0 7 3 0 8 -4 11 -9z m130 1 c2 -4 -4 -8 -14 -8 -10 0 -16 4
-14 8 3 4 9 8 14 8 5 0 11 -4 14 -8z m-245 -15 c-2 -2 -11 -8 -20 -15 -12 -9
-16 -9 -16 1 0 7 9 14 20 14 11 1 18 1 16 0z m41 -31 c-7 -7 -13 -7 -20 0 -6
6 -3 10 10 10 13 0 16 -4 10 -10z m200 0 c-7 -7 -13 -7 -20 0 -6 6 -3 10 10
10 13 0 16 -4 10 -10z m-128 -11 c3 3 11 -3 19 -12 12 -16 12 -17 -2 -6 -9 7
-18 11 -21 8 -3 -3 -11 3 -19 12 -12 16 -12 17 2 6 9 -7 18 -11 21 -8z m222
-15 c-6 -6 -10 -3 -10 10 0 13 4 16 10 10 7 -7 7 -13 0 -20z m-359 10 c3 -5 1
-10 -4 -10 -6 0 -11 5 -11 10 0 6 2 10 4 10 3 0 8 -4 11 -10z m282 -33 c0 -7
-9 -14 -20 -14 -19 -2 -19 -2 -1 12 11 8 19 15 20 15 0 0 1 -6 1 -13z m-287
-23 c0 -8 -19 -13 -24 -6 -3 5 1 9 9 9 8 0 15 -2 15 -3z m107 -12 c-17 -18
-51 -27 -41 -10 3 5 9 6 14 3 4 -3 13 2 20 10 7 8 15 15 18 15 3 0 -2 -8 -11
-18z m283 12 c0 -8 -19 -13 -24 -6 -3 5 1 9 9 9 8 0 15 -2 15 -3z m-345 -23
c-9 -8 -36 -10 -30 -2 2 4 11 8 20 8 8 0 13 -3 10 -6z m210 -1 c3 -6 -1 -7 -9
-4 -18 7 -21 14 -7 14 6 0 13 -4 16 -10z m-68 -32 c2 -17 0 -19 -7 -8 -5 8 -6
18 -4 22 8 12 10 10 11 -14z m-138 -1 c8 -10 7 -14 -2 -14 -8 0 -14 6 -14 14
0 7 1 13 2 13 2 0 8 -6 14 -13z m37 -7 c0 -12 -4 -16 -9 -11 -5 5 -6 14 -3 20
10 15 12 14 12 -9z m38 -10 c-6 -6 -10 -3 -10 10 0 13 4 16 10 10 7 -7 7 -13
0 -20z m141 10 c3 -5 1 -10 -4 -10 -6 0 -11 5 -11 10 0 6 2 10 4 10 3 0 8 -4
11 -10z m-9 -42 c12 -14 13 -18 3 -10 -9 6 -18 10 -21 7 -2 -3 -5 2 -5 10 0
19 0 19 23 -7z m-31 -17 c3 -5 2 -12 -3 -15 -5 -3 -9 1 -9 9 0 17 3 19 12 6z
m-35 -15 c0 -3 -4 -8 -10 -11 -5 -3 -10 -1 -10 4 0 6 5 11 10 11 6 0 10 -2 10
-4z"/>
<path d="M490 1480 c0 -5 5 -10 10 -10 6 0 10 5 10 10 0 6 -4 10 -10 10 -5 0
-10 -4 -10 -10z"/>
<path d="M423 1475 c5 -11 -17 -36 -27 -29 -3 2 -2 -2 4 -8 7 -9 14 -7 26 8
14 17 15 17 10 1 -3 -11 -2 -16 4 -12 6 3 10 0 10 -7 0 -8 5 -6 11 5 6 9 14
15 20 12 5 -4 9 -1 9 4 0 14 -17 14 -25 1 -4 -6 -15 -1 -26 12 -12 13 -18 19
-16 13z"/>
<path d="M570 1471 c0 -6 4 -13 10 -16 6 -3 7 1 4 9 -7 18 -14 21 -14 7z"/>
<path d="M517 1455 c-9 -9 -17 -20 -17 -25 0 -5 -8 -7 -17 -4 -14 5 -15 4 -4
-4 11 -8 10 -11 -5 -15 -16 -4 -16 -5 -2 -6 9 0 23 8 31 19 8 11 17 17 22 12
5 -4 5 -2 1 5 -3 6 -2 14 3 17 16 10 19 -19 5 -39 -8 -10 -14 -15 -14 -11 0 5
-7 3 -15 -4 -8 -7 -12 -16 -9 -21 9 -15 23 -10 36 14 7 12 20 22 28 22 8 0 21
-10 28 -22 13 -24 27 -29 36 -14 3 5 -1 14 -9 21 -8 7 -15 9 -15 4 0 -5 -5 -1
-11 8 -6 11 -16 15 -27 11 -15 -6 -16 -5 -2 13 8 10 10 16 6 12 -5 -4 -14 -1
-21 8 -10 15 -13 15 -28 -1z m3 -65 c0 -5 -5 -10 -11 -10 -5 0 -7 5 -4 10 3 6
8 10 11 10 2 0 4 -4 4 -10z m95 0 c3 -5 1 -10 -4 -10 -6 0 -11 5 -11 10 0 6 2
10 4 10 3 0 8 -4 11 -10z"/>
<path d="M595 1439 c-5 -8 -5 -11 0 -7 5 5 14 -1 22 -12 8 -11 20 -20 26 -19
9 0 8 2 -1 6 -6 2 -9 10 -5 16 3 7 3 9 -2 5 -4 -4 -13 0 -20 9 -10 13 -13 14
-20 2z"/>
<path d="M367 1413 c4 -11 2 -14 -5 -9 -8 5 -10 1 -5 -10 4 -11 8 -13 11 -6 2
7 8 10 13 7 5 -4 6 1 3 10 -5 11 -2 14 12 9 11 -4 16 -4 13 0 -4 4 -16 8 -27
11 -16 3 -19 0 -15 -12z"/>
<path d="M395 1386 c-22 -22 -24 -26 -8 -17 12 6 25 16 28 22 4 6 12 3 20 -8
12 -15 16 -16 27 -4 11 12 10 13 -6 7 -14 -5 -17 -2 -12 9 3 9 2 14 -3 10 -5
-3 -11 -2 -13 2 -1 5 -16 -5 -33 -21z"/>
<path d="M550 1390 c0 -5 5 -10 10 -10 6 0 10 5 10 10 0 6 -4 10 -10 10 -5 0
-10 -4 -10 -10z"/>
<path d="M323 1375 c-7 -8 -13 -16 -13 -18 0 -2 6 -4 13 -5 6 0 21 -2 32 -5
11 -2 14 -2 7 0 -7 3 -10 9 -7 14 4 5 -2 6 -12 2 -16 -6 -16 -5 -4 10 16 20 1
22 -16 2z"/>
<path d="M670 1380 c0 -5 5 -10 11 -10 5 0 7 5 4 10 -3 6 -8 10 -11 10 -2 0
-4 -4 -4 -10z"/>
<path d="M420 1360 c8 -5 20 -10 25 -10 6 0 3 5 -5 10 -8 5 -19 10 -25 10 -5
0 -3 -5 5 -10z"/>
<path d="M462 1350 c-7 -12 -8 -20 -2 -20 5 0 10 4 10 10 0 5 6 8 13 6 6 -1 9
-1 4 1 -4 3 -5 9 -1 14 3 5 1 9 -3 9 -5 0 -14 -9 -21 -20z"/>
<path d="M520 1360 c-8 -5 -10 -10 -5 -10 6 0 17 5 25 10 8 5 11 10 5 10 -5 0
-17 -5 -25 -10z"/>
<path d="M550 1350 c-14 -11 -21 -20 -17 -20 5 0 20 9 34 20 14 11 22 20 17
20 -5 0 -20 -9 -34 -20z"/>
<path d="M620 1360 c-11 -8 -8 -9 13 -4 23 5 26 4 21 -12 -6 -15 -4 -16 6 -7
25 23 -9 43 -40 23z"/>
<path d="M393 1338 c-1 -11 1 -16 5 -12 4 5 11 12 15 15 5 3 2 9 -5 12 -9 3
-14 -3 -15 -15z"/>
<path d="M285 1342 c-13 -9 -17 -32 -6 -32 5 0 11 9 14 20 6 22 6 22 -8 12z"/>
<path d="M574 1338 c-5 -8 -2 -9 10 -5 14 6 17 3 12 -8 -3 -9 -2 -14 3 -10 5
3 11 1 13 -5 2 -6 9 0 17 12 13 21 13 22 -1 10 -13 -10 -17 -10 -22 3 -6 18
-22 20 -32 3z"/>
<path d="M690 1326 c-5 -13 -14 -26 -20 -29 -6 -3 -5 -4 2 -3 7 1 18 12 24 24
6 12 14 19 19 14 5 -4 5 -1 1 6 -10 17 -15 15 -26 -12z"/>
<path d="M310 1330 c0 -5 5 -10 10 -10 6 0 10 5 10 10 0 6 -4 10 -10 10 -5 0
-10 -4 -10 -10z"/>
<path d="M430 1329 c0 -5 -5 -7 -11 -4 -6 4 -5 -2 3 -14 7 -12 16 -21 20 -21
4 0 6 -6 4 -12 -1 -7 -1 -10 1 -5 3 4 9 4 15 1 5 -3 4 3 -4 15 -7 12 -16 21
-20 21 -4 0 -5 7 -2 15 4 8 3 15 0 15 -3 0 -6 -5 -6 -11z"/>
<path d="M346 1319 c2 -4 -2 -9 -8 -12 -7 -2 -11 -7 -8 -10 3 -3 16 2 28 12
21 16 22 17 3 17 -11 0 -18 -3 -15 -7z"/>
<path d="M490 1322 c0 -6 -8 -9 -17 -6 -14 4 -15 3 -5 -4 8 -5 13 -13 12 -18
-1 -5 3 -9 10 -10 7 -2 7 -1 0 3 -8 3 -7 9 1 19 7 8 9 17 5 21 -3 3 -6 1 -6
-5z"/>
<path d="M548 1313 c6 -2 18 -2 25 0 6 3 1 5 -13 5 -14 0 -19 -2 -12 -5z"/>
<path d="M635 1310 c-3 -5 -1 -10 4 -10 6 0 11 5 11 10 0 6 -2 10 -4 10 -3 0
-8 -4 -11 -10z"/>
<path d="M240 1299 c-12 -9 -12 -10 3 -5 15 5 17 2 12 -17 -5 -20 -5 -20 6 -4
14 23 0 40 -21 26z"/>
<path d="M291 1296 c-9 -11 -9 -16 0 -22 7 -4 9 -3 5 4 -3 5 0 12 6 15 7 2 10
7 7 11 -3 4 -12 0 -18 -8z"/>
<path d="M360 1290 l-25 -21 28 12 c15 7 27 16 27 21 0 11 -1 10 -30 -12z"/>
<path d="M510 1300 c0 -5 5 -10 10 -10 6 0 10 5 10 10 0 6 -4 10 -10 10 -5 0
-10 -4 -10 -10z"/>
<path d="M535 1283 c-16 -12 -16 -14 -3 -10 11 4 21 0 27 -11 6 -9 11 -12 11
-5 0 6 -5 15 -11 19 -8 4 -7 9 2 15 8 5 10 9 4 9 -5 -1 -19 -8 -30 -17z"/>
<path d="M581 1288 c-1 -20 14 -24 25 -6 4 6 3 8 -4 4 -5 -3 -13 0 -15 6 -3 8
-6 6 -6 -4z"/>
<path d="M400 1279 c0 -5 -4 -7 -10 -4 -6 3 -7 -1 -4 -10 4 -9 7 -15 8 -13 1
2 8 11 15 21 9 11 10 17 2 17 -6 0 -11 -5 -11 -11z"/>
<path d="M620 1286 c0 -2 7 -6 15 -10 8 -3 15 -1 15 4 0 6 -7 10 -15 10 -8 0
-15 -2 -15 -4z"/>
<path d="M310 1270 c0 -5 5 -10 10 -10 6 0 10 5 10 10 0 6 -4 10 -10 10 -5 0
-10 -4 -10 -10z"/>
<path d="M274 1262 c3 -6 1 -13 -4 -15 -6 -3 -5 -4 2 -3 7 1 19 -4 27 -11 16
-17 47 -12 43 6 -2 8 5 11 20 7 13 -3 17 -3 10 0 -6 3 -9 10 -6 16 4 6 -3 5
-15 -2 -12 -6 -19 -15 -16 -21 4 -5 -1 -9 -9 -9 -9 0 -16 3 -16 8 0 4 -9 13
-21 20 -12 8 -18 9 -15 4z"/>
<path d="M414 1258 c-4 -6 0 -16 9 -23 9 -7 14 -15 10 -19 -4 -4 1 -4 12 0 11
5 14 9 7 12 -7 2 -10 8 -7 13 4 5 -1 6 -10 3 -11 -5 -14 -2 -9 10 7 18 -1 22
-12 4z"/>
<path d="M475 1260 c-19 -8 -19 -9 2 -9 12 -1 25 4 28 9 7 12 -2 12 -30 0z"/>
<path d="M589 1251 c-18 -15 -21 -22 -12 -33 8 -9 9 -19 3 -28 -6 -8 -10 -13
-11 -10 -4 23 -9 39 -18 60 l-12 25 7 -25 c3 -14 6 -33 5 -42 0 -10 5 -18 10
-18 6 0 7 -6 4 -12 -4 -7 2 -3 13 9 11 12 23 19 28 15 5 -4 3 0 -4 9 -9 12 -9
19 1 29 10 12 9 12 -5 1 -13 -9 -18 -10 -18 -2 0 6 11 16 25 21 14 5 25 12 25
15 0 11 -19 4 -41 -14z"/>
<path d="M221 1253 c-2 -18 21 -63 31 -63 5 0 6 5 3 10 -3 6 -1 10 4 10 6 0
11 5 11 11 0 8 -6 7 -16 -2 -15 -12 -16 -11 -10 11 5 17 4 21 -2 11 -8 -11
-11 -10 -15 5 -2 10 -5 14 -6 7z"/>
<path d="M383 1233 c-7 -2 -13 -9 -13 -15 0 -6 6 -6 15 2 18 15 20 -1 3 -18
-9 -9 -9 -12 0 -12 7 0 12 5 12 11 0 5 5 7 11 3 8 -4 8 0 0 15 -7 11 -13 21
-14 20 -1 0 -8 -3 -14 -6z"/>
<path d="M177 1215 c-8 -20 9 -28 30 -15 15 9 14 10 -7 5 -24 -6 -24 -5 -6 9
16 13 17 16 4 16 -9 0 -18 -7 -21 -15z"/>
<path d="M495 1220 c-8 -13 5 -13 25 0 13 8 13 10 -2 10 -9 0 -20 -4 -23 -10z"/>
<path d="M277 1206 c-4 -9 -3 -15 2 -11 5 3 11 0 13 -7 3 -7 7 -5 11 6 4 9 3
15 -2 11 -5 -3 -11 0 -13 7 -3 7 -7 5 -11 -6z"/>
<path d="M350 1209 c0 -5 -5 -7 -11 -4 -6 4 -5 -2 3 -14 7 -12 16 -21 20 -21
4 0 6 -6 4 -12 -1 -7 -1 -10 1 -5 3 4 9 4 15 1 5 -3 4 3 -4 15 -7 12 -16 21
-20 21 -4 0 -5 7 -2 15 4 8 3 15 0 15 -3 0 -6 -5 -6 -11z"/>
<path d="M445 1200 c-3 -5 -1 -10 4 -10 6 0 11 5 11 10 0 6 -2 10 -4 10 -3 0
-8 -4 -11 -10z"/>
<path d="M516 1193 c-6 -15 -8 -15 -16 -3 -6 8 -10 10 -10 4 0 -6 8 -18 17
-25 11 -10 14 -10 9 -1 -4 6 -3 12 2 12 6 0 12 7 16 15 3 8 1 15 -3 15 -5 0
-12 -8 -15 -17z"/>
<path d="M144 1175 c-4 -8 -3 -23 2 -32 4 -10 6 -22 5 -26 -1 -5 3 -6 8 -3 5
4 11 2 13 -3 1 -5 10 -2 18 7 13 14 12 15 -2 9 -20 -7 -41 16 -35 40 3 15 6
14 15 -7 11 -26 17 -14 6 14 -8 20 -23 21 -30 1z"/>
<path d="M200 1180 c-13 -8 -13 -10 2 -10 9 0 20 5 23 10 8 13 -5 13 -25 0z"/>
<path d="M410 1179 c0 -5 -4 -7 -10 -4 -6 3 -7 -1 -4 -10 4 -9 7 -15 8 -13 1
2 8 11 15 21 9 11 10 17 2 17 -6 0 -11 -5 -11 -11z"/>
<path d="M467 1183 c-9 -9 -9 -41 1 -46 4 -3 7 8 7 24 0 16 0 29 -1 29 0 0 -4
-3 -7 -7z"/>
<path d="M256 1165 c-4 -11 -4 -16 0 -12 4 4 13 -1 20 -11 11 -14 15 -15 26
-3 11 12 10 13 -6 7 -14 -5 -17 -2 -12 9 3 9 2 14 -3 10 -5 -3 -11 0 -13 7 -3
7 -7 4 -12 -7z"/>
<path d="M426 1155 c-9 -14 -12 -25 -6 -25 5 0 10 5 10 11 0 5 4 8 8 5 4 -2 8
4 8 15 0 24 0 24 -20 -6z"/>
<path d="M308 1163 c6 -2 18 -2 25 0 6 3 1 5 -13 5 -14 0 -19 -2 -12 -5z"/>
<path d="M530 1160 c0 -5 5 -10 10 -10 6 0 10 5 10 10 0 6 -4 10 -10 10 -5 0
-10 -4 -10 -10z"/>
<path d="M85 1142 c-13 -9 -19 -35 -6 -28 5 4 12 2 16 -4 3 -5 1 -10 -6 -10
-7 0 -10 -3 -6 -6 3 -4 18 3 33 15 15 11 22 21 16 21 -6 0 -14 -5 -17 -10 -7
-12 -25 -4 -25 11 0 6 5 7 12 3 7 -4 8 -3 4 4 -8 14 -8 14 -21 4z"/>
<path d="M214 1138 c-5 -7 -2 -9 9 -5 9 3 21 -1 29 -10 11 -15 11 -16 -4 -10
-10 3 -18 2 -18 -3 0 -13 27 -13 35 1 4 6 -1 17 -11 24 -23 18 -31 18 -40 3z"/>
<path d="M313 1123 c-23 -29 -24 -46 -1 -22 27 29 40 49 32 49 -5 0 -19 -13
-31 -27z"/>
<path d="M374 1129 c-3 -6 0 -15 7 -20 19 -12 29 -11 29 1 0 6 -3 9 -7 9 -20
-3 -26 2 -13 11 9 6 10 10 3 10 -6 0 -15 -5 -19 -11z"/>
<path d="M460 1108 l21 -22 -23 -19 -23 -18 25 12 c14 6 26 13 28 14 6 5 -30
55 -40 55 -5 0 1 -10 12 -22z"/>
<path d="M200 1110 c-9 -6 -10 -10 -3 -10 6 0 15 5 18 10 8 12 4 12 -15 0z"/>
<path d="M40 1090 c-7 -14 -7 -20 0 -20 5 0 10 7 10 16 0 9 5 12 12 8 7 -4 8
-3 4 4 -10 16 -14 15 -26 -8z"/>
<path d="M113 1090 c-17 -14 -19 -19 -9 -23 20 -8 54 19 41 32 -7 6 -17 3 -32
-9z m27 1 c0 -5 -7 -12 -16 -15 -14 -5 -15 -4 -4 9 14 17 20 19 20 6z"/>
<path d="M334 1098 c-5 -8 -2 -9 10 -5 14 6 17 3 12 -8 -4 -11 -2 -14 6 -9 8
5 9 2 5 -9 -9 -24 0 -21 14 4 6 12 7 19 1 15 -5 -3 -12 1 -16 9 -6 18 -22 19
-32 3z"/>
<path d="M424 1095 c-18 -15 -18 -15 0 -8 13 4 17 3 12 -5 -5 -8 -1 -10 10 -5
11 4 13 8 6 11 -7 2 -10 8 -6 13 8 13 1 11 -22 -6z"/>
<path d="M270 1089 c0 -5 -4 -7 -10 -4 -5 3 -7 0 -4 -9 4 -11 0 -13 -14 -9
-11 2 -22 0 -26 -5 -3 -6 10 -9 34 -7 22 1 43 -1 46 -6 3 -5 10 -9 17 -9 6 0
2 6 -8 14 -11 8 -24 12 -28 9 -5 -3 -6 4 -2 16 3 11 4 21 1 21 -3 0 -6 -5 -6
-11z"/>
<path d="M156 1075 c-9 -26 -7 -32 5 -12 6 10 9 21 6 23 -2 3 -7 -2 -11 -11z"/>
<path d="M180 1085 c0 -8 29 -12 39 -5 9 5 4 8 -13 8 -14 0 -26 -2 -26 -3z"/>
<path d="M308 1073 c6 -2 18 -2 25 0 6 3 1 5 -13 5 -14 0 -19 -2 -12 -5z"/>
<path d="M175 1059 c-4 -6 -4 -13 -1 -16 3 -4 6 -1 6 6 0 7 5 9 12 5 7 -4 8
-3 4 4 -9 15 -13 15 -21 1z"/>
<path d="M390 1062 c0 -4 9 -8 20 -9 11 -1 18 2 15 8 -7 11 -35 12 -35 1z"/>
<path d="M296 943 c-6 -14 -5 -15 5 -6 7 7 10 15 7 18 -3 3 -9 -2 -12 -12z"/>
<path d="M395 950 c6 -10 4 -12 -11 -6 -15 6 -17 5 -6 -5 9 -9 15 -10 23 -2 8
8 7 13 -2 18 -8 6 -10 4 -4 -5z"/>
<path d="M24 939 c-3 -6 -1 -16 5 -22 9 -9 10 -7 5 8 -7 17 -6 18 8 7 9 -7 15
-21 13 -31 -3 -14 2 -17 21 -13 13 2 27 9 30 14 3 5 -5 6 -21 2 -14 -3 -25 -2
-24 2 3 13 -12 44 -21 44 -5 0 -12 -5 -16 -11z"/>
<path d="M70 941 c0 -10 19 -25 25 -20 1 2 -3 10 -11 17 -8 7 -14 8 -14 3z"/>
<path d="M110 940 c0 -5 4 -10 10 -10 5 0 8 -6 6 -12 -1 -7 -1 -10 1 -5 3 4 9
4 15 1 5 -3 4 3 -4 15 -14 22 -28 28 -28 11z"/>
<path d="M150 939 c0 -5 5 -7 10 -4 6 3 10 8 10 11 0 2 -4 4 -10 4 -5 0 -10
-5 -10 -11z"/>
<path d="M188 931 c4 -10 1 -12 -7 -6 -8 4 -6 -3 4 -18 15 -24 15 -26 -2 -35
-10 -6 -15 -13 -12 -16 6 -6 59 38 59 49 0 4 -6 2 -14 -4 -11 -9 -13 -6 -13
13 0 24 15 31 28 13 3 -5 9 -3 11 5 4 10 -3 14 -27 14 -24 0 -31 -4 -27 -15z"/>
<path d="M316 934 c-3 -9 -4 -19 -1 -22 3 -3 5 1 6 9 0 8 4 6 9 -6 6 -13 9
-15 9 -5 0 8 -3 21 -8 28 -6 11 -10 10 -15 -4z"/>
<path d="M353 928 c1 -15 6 -23 11 -18 4 4 4 16 -2 26 -9 16 -10 14 -9 -8z"/>
<path d="M255 929 c-4 -6 -5 -11 -4 -12 2 -2 13 -9 23 -17 11 -8 17 -10 13 -3
-4 6 -4 13 0 16 5 2 3 2 -4 1 -17 -4 -26 13 -11 19 9 4 10 6 1 6 -6 1 -15 -4
-18 -10z"/>
<path d="M495 911 c-6 -11 13 -26 22 -17 4 3 1 6 -6 6 -7 0 -9 5 -6 10 3 6 4
10 1 10 -3 0 -7 -4 -11 -9z"/>
<path d="M152 901 c-11 -6 -10 -10 4 -15 9 -3 19 -4 22 -1 3 3 0 5 -7 5 -7 0
-9 5 -6 10 7 12 4 12 -13 1z"/>
<path d="M375 900 c-8 -13 5 -13 25 0 13 8 13 10 -2 10 -9 0 -20 -4 -23 -10z"/>
<path d="M455 900 c-10 -16 3 -27 31 -27 17 0 22 2 13 7 -6 5 -18 6 -26 3 -9
-4 -11 0 -7 11 7 18 -1 22 -11 6z"/>
<path d="M242 880 c0 -14 2 -19 5 -12 2 6 2 18 0 25 -3 6 -5 1 -5 -13z"/>
<path d="M301 890 c0 -8 3 -21 8 -28 6 -11 10 -10 15 4 3 9 4 19 1 22 -3 3 -5
-1 -6 -9 0 -8 -4 -6 -9 6 -6 13 -9 15 -9 5z"/>
<path d="M120 880 c8 -5 20 -10 25 -10 6 0 3 5 -5 10 -8 5 -19 10 -25 10 -5 0
-3 -5 5 -10z"/>
<path d="M368 867 c17 -13 29 -27 25 -31 -4 -4 1 -4 11 0 12 5 14 9 6 14 -9 5
-9 9 -1 14 14 9 14 26 1 26 -5 0 -9 -5 -7 -11 1 -6 -4 -14 -12 -17 -9 -3 -11
0 -6 8 5 8 4 11 -3 6 -6 -3 -13 -2 -17 4 -3 5 -11 10 -18 10 -6 0 3 -11 21
-23z"/>
<path d="M96 861 c-3 -5 2 -15 12 -22 15 -13 16 -12 3 4 -9 11 -10 17 -2 17 6
0 15 -8 18 -17 4 -10 14 -23 22 -30 9 -7 12 -13 8 -13 -10 0 18 -30 29 -30 3
0 1 7 -6 15 -6 8 -13 26 -14 40 -2 14 -7 29 -11 33 -4 4 -4 -4 -1 -18 l7 -25
-21 28 c-22 28 -35 33 -44 18z"/>
<path d="M202 851 c-21 -16 -22 -17 -3 -17 11 0 18 3 15 7 -2 4 2 9 8 12 7 2
11 7 8 10 -3 3 -16 -2 -28 -12z"/>
<path d="M272 861 c-11 -6 -10 -10 4 -15 9 -3 19 -4 22 -1 3 3 0 5 -7 5 -7 0
-9 5 -6 10 7 12 4 12 -13 1z"/>
<path d="M334 858 c-4 -6 1 -17 10 -24 11 -8 13 -14 7 -19 -14 -8 -14 -25 -1
-25 6 0 9 5 8 11 -2 6 2 13 7 15 6 2 11 -5 11 -16 0 -11 -6 -20 -12 -20 -6 0
-17 -7 -24 -16 -11 -13 -10 -19 7 -36 20 -19 50 -17 38 3 -4 5 1 9 10 9 8 0
18 7 21 15 4 8 11 12 18 8 6 -4 5 1 -3 10 -7 9 -19 17 -25 17 -8 0 -7 -3 1 -8
14 -9 5 -26 -20 -35 -10 -4 -15 -11 -12 -17 3 -5 2 -10 -3 -10 -17 0 -22 13
-9 29 11 14 10 14 -5 2 -12 -9 -18 -10 -18 -2 0 6 11 16 25 21 18 7 23 14 18
26 -4 11 -2 15 4 11 5 -4 19 0 29 8 10 8 14 15 7 15 -6 0 -15 -4 -18 -10 -4
-6 -13 -5 -25 2 -10 7 -17 16 -14 20 3 4 -2 5 -11 2 -11 -5 -14 -2 -9 10 7 18
-1 22 -12 4z"/>
<path d="M430 860 c0 -5 5 -10 10 -10 6 0 10 5 10 10 0 6 -4 10 -10 10 -5 0
-10 -4 -10 -10z"/>
<path d="M509 847 c-11 -25 -52 -36 -42 -11 3 7 9 11 14 8 5 -3 9 0 9 5 0 16
-20 13 -26 -4 -4 -8 -11 -12 -18 -8 -6 4 -5 -1 3 -10 14 -18 53 -17 59 1 2 7
8 10 12 7 5 -3 12 0 16 6 4 8 3 9 -4 5 -7 -4 -12 -3 -12 3 0 5 6 12 13 14 9 4
9 6 -1 6 -7 1 -17 -9 -23 -22z"/>
<path d="M237 843 c-12 -11 -8 -23 7 -23 8 0 18 4 21 10 4 6 -1 7 -11 3 -12
-4 -15 -3 -10 5 8 13 3 16 -7 5z"/>
<path d="M582 830 c7 -11 17 -20 22 -20 5 0 1 9 -9 20 -10 11 -20 20 -22 20
-2 0 2 -9 9 -20z"/>
<path d="M303 833 c-7 -3 -13 -9 -13 -15 0 -6 6 -6 15 2 9 8 15 8 15 2 0 -6
-7 -17 -15 -26 -20 -20 -19 -32 2 -15 15 12 16 12 9 -6 -4 -11 -4 -16 1 -12
10 10 13 66 4 71 -3 2 -12 1 -18 -1z"/>
<path d="M534 816 c-3 -9 -10 -14 -14 -11 -5 3 -11 1 -15 -5 -4 -6 -10 -8 -14
-5 -5 2 -16 -2 -26 -9 -16 -11 -16 -14 -2 -27 14 -13 13 -16 -1 -33 -10 -11
-12 -16 -5 -13 6 4 14 1 17 -5 3 -7 4 -4 3 6 -1 10 4 21 12 24 9 3 11 0 6 -8
-5 -9 -4 -11 3 -6 7 4 12 2 12 -3 0 -6 -4 -11 -10 -11 -5 0 -10 -5 -10 -10 0
-6 8 -5 20 2 21 13 21 13 -4 34 -14 12 -22 25 -18 30 4 4 2 4 -5 0 -6 -3 -14
-2 -17 3 -10 16 19 19 39 5 10 -8 15 -14 11 -14 -5 0 -3 -7 4 -15 7 -8 16 -12
21 -9 16 9 10 24 -16 36 -25 11 -26 32 -1 22 13 -5 31 24 21 34 -2 3 -7 -3
-11 -12z m6 -66 c0 -5 -2 -10 -4 -10 -3 0 -8 5 -11 10 -3 6 -1 10 4 10 6 0 11
-4 11 -10z"/>
<path d="M195 810 c12 -5 14 -9 6 -9 -8 -1 -12 -3 -9 -6 3 -3 13 -2 22 1 14 5
15 9 4 15 -7 5 -20 8 -28 8 -10 0 -8 -3 5 -9z"/>
<path d="M272 800 c0 -14 2 -19 5 -12 2 6 2 18 0 25 -3 6 -5 1 -5 -13z"/>
<path d="M430 800 c0 -5 5 -10 10 -10 6 0 10 5 10 10 0 6 -4 10 -10 10 -5 0
-10 -4 -10 -10z"/>
<path d="M556 793 c-4 -9 -2 -21 4 -27 8 -8 9 -5 4 9 -7 18 -6 18 9 6 11 -9
17 -10 17 -2 0 6 -5 11 -11 11 -5 0 -7 5 -4 10 3 6 2 10 -3 10 -6 0 -13 -8
-16 -17z"/>
<path d="M238 773 c29 -29 56 -49 49 -36 -4 6 -2 14 3 16 6 3 5 4 -2 3 -7 -1
-21 6 -32 16 -25 23 -42 24 -18 1z"/>
<path d="M206 763 c2 -6 -2 -13 -9 -16 -7 -2 -7 -6 -1 -10 5 -3 16 3 23 15 7
11 8 17 3 14 -6 -3 -12 -3 -15 1 -2 5 -2 3 -1 -4z"/>
<path d="M225 739 c-6 -8 -4 -10 5 -4 10 6 12 4 6 -11 -6 -15 -5 -17 5 -6 9 9
10 15 2 23 -8 8 -13 7 -18 -2z"/>
<path d="M305 740 c-3 -5 -4 -14 0 -19 3 -5 1 -12 -4 -16 -10 -6 -11 -44 -1
-43 3 0 13 0 24 -1 15 -1 16 -4 6 -16 -7 -9 -8 -15 -2 -15 5 0 13 7 16 15 4
11 -3 19 -19 25 -14 5 -25 15 -25 21 0 8 5 7 18 -2 14 -11 15 -11 5 1 -10 11
-10 17 0 29 10 12 9 13 -2 6 -11 -6 -13 -4 -8 8 7 19 2 23 -8 7z"/>
<path d="M430 740 c0 -5 5 -10 10 -10 6 0 10 5 10 10 0 6 -4 10 -10 10 -5 0
-10 -4 -10 -10z"/>
<path d="M567 733 c4 -11 3 -14 -5 -9 -8 5 -10 1 -5 -10 4 -11 8 -13 11 -6 2
7 8 9 14 6 6 -4 5 2 -1 15 -14 25 -23 28 -14 4z"/>
<path d="M650 746 c0 -3 9 -15 19 -25 19 -19 20 -19 18 -1 -1 11 -3 17 -6 15
-2 -3 -10 0 -18 6 -7 6 -13 9 -13 5z"/>
<path d="M630 729 c0 -5 -5 -7 -11 -3 -6 3 -3 -5 6 -20 16 -23 16 -26 1 -32
-9 -3 -16 -11 -16 -16 0 -7 5 -6 13 1 17 13 27 5 28 -23 0 -12 3 -15 6 -8 3 7
2 20 -3 30 -4 9 -9 25 -11 36 -3 16 -1 17 12 6 22 -18 18 -3 -5 20 -11 11 -20
15 -20 9z"/>
<path d="M256 714 c-4 -9 -4 -19 -1 -22 2 -3 7 3 11 12 4 9 4 19 1 22 -2 3 -7
-3 -11 -12z"/>
<path d="M406 715 c4 -8 8 -15 10 -15 2 0 4 7 4 15 0 8 -4 15 -10 15 -5 0 -7
-7 -4 -15z"/>
<path d="M330 705 c0 -3 11 -10 25 -15 14 -5 25 -15 25 -21 0 -8 -6 -7 -17 2
-16 12 -17 12 -6 -1 8 -10 9 -21 3 -30 -6 -8 -10 -19 -10 -25 0 -5 10 6 21 25
l21 34 -22 18 c-22 18 -40 23 -40 13z"/>
<path d="M390 705 c0 -5 5 -17 10 -25 5 -8 10 -10 10 -5 0 6 -5 17 -10 25 -5
8 -10 11 -10 5z"/>
<path d="M434 702 c3 -6 1 -13 -4 -15 -6 -3 -5 -4 2 -3 7 1 19 -3 26 -11 16
-16 32 -17 32 -2 0 5 -4 7 -10 4 -5 -3 -10 -2 -10 2 0 5 -9 14 -21 21 -12 8
-18 9 -15 4z"/>
<path d="M522 691 c-21 -16 -22 -17 -3 -17 11 0 18 3 15 7 -2 4 2 9 8 12 7 2
11 7 8 10 -3 3 -16 -2 -28 -12z"/>
<path d="M587 699 c-9 -6 -14 -15 -11 -21 5 -7 1 -9 -9 -5 -10 3 -17 2 -17 -4
0 -6 8 -9 18 -7 9 2 16 10 14 17 -2 8 5 11 20 7 13 -3 17 -3 10 0 -6 3 -10 10
-6 15 7 11 4 11 -19 -2z"/>
<path d="M408 656 c-10 -7 -15 -16 -11 -19 10 -10 25 -8 19 2 -4 5 0 11 6 14
7 2 11 7 8 10 -3 3 -13 0 -22 -7z"/>
<path d="M437 646 c-4 -9 -3 -15 2 -11 5 3 11 0 13 -7 3 -7 7 -5 11 6 4 9 3
15 -2 11 -5 -3 -11 0 -13 7 -3 7 -7 5 -11 -6z"/>
<path d="M484 638 c-19 -23 -19 -23 2 -5 26 22 28 22 58 -6 17 -16 22 -27 16
-35 -7 -9 -7 -9 2 -2 19 15 32 12 18 -5 -9 -10 -9 -15 -1 -15 6 0 11 5 11 10
0 6 8 10 18 10 9 0 -2 9 -25 21 -24 12 -41 25 -38 29 5 7 -17 20 -34 20 -4 0
-16 -10 -27 -22z"/>
<path d="M592 640 c0 -14 2 -19 5 -12 2 6 2 18 0 25 -3 6 -5 1 -5 -13z"/>
<path d="M295 640 c3 -5 8 -10 11 -10 2 0 4 5 4 10 0 6 -5 10 -11 10 -5 0 -7
-4 -4 -10z"/>
<path d="M621 633 c-7 -8 -11 -16 -8 -19 2 -2 10 2 17 11 17 20 9 27 -9 8z"/>
<path d="M500 625 c-7 -9 -8 -15 -2 -15 5 0 12 7 16 15 3 8 4 15 2 15 -2 0 -9
-7 -16 -15z"/>
<path d="M377 623 c-4 -3 -7 -11 -7 -17 0 -6 5 -5 12 2 6 6 9 14 7 17 -3 3 -9
2 -12 -2z"/>
<path d="M417 606 c-4 -9 -3 -15 2 -11 5 3 11 0 13 -7 3 -7 7 -5 11 6 4 9 3
15 -2 11 -5 -3 -11 0 -13 7 -3 7 -7 5 -11 -6z"/>
<path d="M526 602 c4 -15 1 -22 -8 -20 -23 5 -20 -37 4 -58 l23 -19 -17 21
c-19 22 -25 59 -9 49 6 -3 15 4 21 16 7 12 8 19 2 15 -6 -3 -13 0 -16 6 -3 7
-3 3 0 -10z"/>
<path d="M470 600 c8 -5 20 -10 25 -10 6 0 3 5 -5 10 -8 5 -19 10 -25 10 -5 0
-3 -5 5 -10z"/>
<path d="M630 605 c0 -7 30 -13 34 -7 3 4 -4 9 -15 9 -10 1 -19 0 -19 -2z"/>
<path d="M390 593 c0 -5 7 -17 15 -27 8 -10 12 -22 10 -27 -3 -4 0 -11 6 -15
7 -4 9 -3 5 4 -3 6 3 12 16 15 l23 4 -23 2 c-13 0 -21 4 -19 9 2 4 -4 15 -15
25 -10 9 -18 14 -18 10z"/>
<path d="M370 581 c0 -6 4 -13 10 -16 6 -3 7 1 4 9 -7 18 -14 21 -14 7z"/>
<path d="M446 574 c-5 -14 -4 -15 9 -4 17 14 19 20 6 20 -5 0 -12 -7 -15 -16z"/>
<path d="M616 575 c-11 -8 -15 -15 -9 -15 6 0 16 7 23 15 16 19 11 19 -14 0z"/>
<path d="M478 573 c0 -5 -2 -12 -3 -18 -2 -5 -3 -16 -4 -23 0 -7 -6 -10 -13
-6 -6 4 -8 3 -5 -4 4 -5 17 -8 29 -4 16 4 19 2 13 -8 -6 -9 -4 -11 5 -5 10 6
10 10 -2 19 -8 6 -14 21 -13 34 2 20 -3 31 -7 15z"/>
<path d="M534 559 c-3 -6 2 -18 11 -27 10 -10 15 -12 11 -5 -4 7 2 14 15 18
11 4 18 9 16 12 -3 2 -15 0 -26 -7 -12 -6 -21 -7 -21 -1 0 5 6 12 13 14 9 4 9
6 0 6 -6 1 -15 -4 -19 -10z"/>
</g>
</svg>
